<?xml version="1.0" encoding="UTF-8"?>
<svg id="Layer_1" data-name="Layer 1" xmlns="http://www.w3.org/2000/svg" viewBox="0 0 369.82 42.6">
  <defs>
    <style>
      .cls-1 {
        fill: #fffeff;
      }

      .cls-2 {
        fill: #fefefe;
      }

      .cls-3 {
        fill: #fefdfd;
      }
    </style>
  </defs>
  <path d="m310.22,26.88c-.52-.58-.98-1.22-1.67-1.64-.23-.14-.44-.32-.6-.53-.27-.34.12-.16.2-.23-.22-.17-.5-.16-.75-.24-.44.27-.46.41-.06.75.64.54,1.11,1.21,1.72,1.88-.42.07-.56.26-.69.59-.24.61-.74,1.04-1.5,1.32.21-.32.46-.32.65-.43.3-.18.51-.45.4-.76-.19-.51-.14-1.01-.15-1.52,0-.34-.14-.56-.51-.58-.7-.03-1.41-.15-2.1.13-.18.07-.41.22-.55-.03-.17-.31.14-.36.32-.48.6-.37.7-.68.47-1.35-.11-.31-.31-.6-.3-1.01.29.21.45.48.72.59.17.07.38.22.46-.11-.08-.09-.15-.2-.24-.28-.68-.7-.67-.87.07-1.46,1.17-.92,2.3-1.87,3.28-2.99.83-.94.85-2.69.03-3.52-.4-.4-.93-.69-1.45-.95-.88-.45-2.15-.23-2.83.48-1.21,1.25-2.53,2.38-3.64,3.72-.2.24-.43.45-.66.65-.23.2-.42.21-.44-.16,0-.14,0-.29,0-.43-.46.23-.31.61-.19.94.12.32.43.3.69.19.38-.15.82-.17,1.15-.45.41-.38.61-.97,1.2-1.17.35-.18.57-.45.73-.81.39-.88.98-1.63,1.74-2.23.3-.23.65-.45,1.03-.35.7.2,1.36.5,1.98.88.21.12.33.32-.04.41-.33.08-.48.31-.58.59-.15.44-.42.8-.76,1.12-.2.18-.42.37-.48.64-.23.98-.99,1.48-1.76,1.99-.67.44-1.36.89-1.28,1.98-.26-.62-.28-1.14-.4-1.63-.06-.24-.02-.44.26-.45.76-.03,1.2-.6,1.76-.98.22-.15.51-.35.52-.59.01-.54.41-.72.74-.98.19-.15.43-.3.31-.6-.1-.26-.34-.34-.6-.37-.27-.03-.56.05-.83-.15.17-.1.28,0,.4,0,.25-.01.46-.1.54-.34.1-.28-.13-.41-.32-.53-.62-.38-1.06-.23-1.39.45-.38.78-.71,1.6-1.59,1.98-.32.45-.54,1-1.17,1.15-.33.28-.53.6-.55,1.06-.03,1.15-.09,2.3-.06,3.46,0,.37-.13.63-.54.57-.89-.13-1.39.3-1.74,1.06-.16.34-.26.64-.11.99.06.15.1.32.07.48-.03.14-.05.3-.22.34-.14.03-.23-.09-.29-.2-.42-.88-1.19-1-2.05-.94-.25.02-.5,0-.75.03-.35.04-.5-.13-.5-.46,0-.62-.11-1.22-.04-1.85.09-.8.16-1.6.16-2.4.02-3.89-.08-7.78.02-11.67.01-.54.25-.69.72-.69.46,0,.91-.05,1.37-.06.26,0,.55.01.7-.29-.18-.2-.43-.1-.65-.12-1.08-.09-2.14.14-3.22.13-.4.24-.32.64-.32,1,0,3.17,0,6.34,0,9.51,0,1.24,0,2.47,0,3.71,0,.31,0,.64-.32.81.2.32.22.74.06,1.07.04,0,.09,0,.13,0,.25-.02.49.07.43.38-.2,1.02-.11,2.05-.07,3.08.04,1.09.28,2.12,1.48,2.61,1.47.6,2.92.41,4.37-.03.33-.1.42-.39.37-.7-.21-1.36-.07-2.73-.11-4.1,0-.12-.05-.28.11-.31.07-.02.19.06.26.13.34.36.71.68,1.02,1.08.9,1.15,1.77,2.32,2.88,3.29,1.52,1.33,3.7,1.45,5.14-.21.68-.79,1-2.13.39-2.82Z"/>
  <path d="m240,24.49c-.02-.34.47-.61.13-.98.66-.66,1.03-1.59,1.9-2.07.46-.26.96-.45,1.43-.68,1.7-.84,3.58-.42,5.33-.83.02,0,.04,0,.06,0,.38-.13,1.01-.1,1.05-.47.05-.45-.53-.68-.93-.87-.39-.18-.82-.27-1.23-.39-.29-.28-.7-.21-1.05-.34-.13-.05-.32-.04-.31-.23,0-.14.14-.24.25-.24.93.01,1.43-.54,1.9-1.24.22-.33.64-.51,1.04-.66.15-.06.36-.06.42-.23.21-.57.6-.42.95-.21.52.31,1.07.56,1.61.81,1.04.47,1.21,1.4,1.44,2.3.12.47.07.99,0,1.48-.05.34-.2.67-.58.72-.35.05-.47-.28-.61-.53-.17-.28-.18-.74-.8-.52.39.24.75.48.35.94.5.75-.13.95-.6,1.26-.15.1-.3.41-.13.54.27.22.57.52.99.41.3-.08.27-.32.19-.56-.01-.04-.02-.08-.02-.12.04-.35.07-.78.45-.86.39-.08.44.36.55.63.25.58,0,1.18.04,1.77,0,.17-.17.27-.31.36-.17.11-.34.22-.42.54.93-.1,1.39.46,1.8,1.11.29.44.24.74-.26.82-.67.1-.82.47-.76,1.07.39.03.72-.14,1.06-.27.26-.1.26-.34.27-.57.04-.48-.16-.93-.11-1.41.07-.58.33-.79.89-.68.04,0,.09,0,.13,0-.23.73-.35,1.5-.24,2.24.27,1.78-.62,2.86-2.1,3.58-1.18.57-2.42.95-3.74.98-1.1.03-2.2,0-3.3,0-1.66,0-3.19-.49-4.55-1.4-1.63-1.08-2.38-2.62-2.06-4.59.03-.19.08-.41-.11-.58Z"/>
  <path d="m206.88,11.59c-.1-.19-.12-.37-.05-.59.17-.51-.01-.75-.55-.71-.58.05-1.16.04-1.74.04-1.76.02-3.53-.08-5.29.05-.4.03-.49-.09-.57-.37-.07-.11-.15-.23-.22-.34-.1.03-.2.07-.33.07-.18,0-.33-.05-.47-.12-.02,0-.05,0-.07,0-.07.02-.13.04-.19.07-.08.06-.15.13-.2.22-.42.45-.99.36-1.51.39-1.14.08-2.28.12-3.41.33-.52.1-1.02.26-1.12.9-.1.66.28,1.63.8,1.83,1.1.41,2.18.9,3.43.69.72-.12,1.22.41,1.19,1.14-.01.32.06.61.13.91.15.63.23,1.25.14,1.9-.14.96-.11,1.93,0,2.9.1.92.15,1.86.06,2.78-.19,1.84-.04,3.65.27,5.46.05.31.2.58.56.54.38-.04.74.04,1.12.04,1.1-.01,1.79-.53,2.04-1.6.05-.23.15-.43.29-.61.24-.3.27-.61.19-.98-.18-.83.27-1.79,1-2.21.13-.24.13-.48,0-.71-1.12-.75-1.22-1-.94-2.28.04-.16.05-.33.05-.49.02-1.01.03-2.02-.17-3.02-.09-.45-.04-.86.18-1.25.35-.62.59-1.27.45-2.01-.05-.28.05-.51.36-.54.5-.04.98-.2,1.49-.13,1.21.17,2.12-.41,2.91-1.2.32-.32.42-.71.19-1.13Z"/>
  <path d="m267.95,24.48c.05-.36-.06-.68-.25-.98.04-.04.08-.08.12-.13.55.06.75-.21.77-.73.02-.52-.08-1.02-.07-1.54.01-.48.13-.93.32-1.37.23-.51.53-.78,1.11-.48.2.1.42.1.57-.09.21-.3.06-.6-.06-.88-.11-.24-.32-.09-.49-.08-.27.01-.58.36-.79.02-.16-.27.13-.54.29-.77.49-.76.97-.98,1.6-.69-.39-.47-.19-.78.14-1.1.74-.72,1.71-1.04,2.64-1.32,1.41-.43,2.87-.62,4.36-.25.63.16,1.3.14,1.94.36.84.29,1.47.72,1.89,1.49.26.9.16,1.75-.34,2.54-.35.56-.82.7-1.44.47-1.54-.57-3.06-.64-4.57.09-.72.25-1.44.01-1.84-.6-.16-.25-.1-.46.04-.69.11-.2.36-.28.46-.56-.42-.02-.61.25-.79.5-.56.79-.55.8-1.1.08q-.29.82-.89.19c-.3.53-.26.71.25.94.21.1.39.22.57.37.37.3.75.58,1.26.62.41.04.61.29.56.67-.07.46-.11.96-.43,1.33-.25.28-.3.57-.21.91.09.35,0,.72.03,1.1.27-.07.26-.38.49-.41.04,0,.08,0,.13.01.19.25.27.53.3.83-.08.26-.4.26-.56.56.42-.18.75-.09,1.01.21h0c1.45,1.46,3.55,1.81,5.42.89.32-.16.61-.17.87.06.31.28.59.59.76.97.1.2.19.43.02.64-.18.21-.4.17-.63.08-.11-.04-.23-.1-.38-.05.22.05.49,0,.51.31.02.26-.15.41-.36.54-.5.3-.75-.16-1.11-.38-.02.7-.49.78-.98.64-.56-.16-.99-.13-1.48.28-.48.41-1.15.38-1.71.05-.48-.29-.96-.35-1.49-.33-1.02.04-1.43-.27-1.6-1.25-.07-.42-.4-.55-.68-.75-.49-.34-1.07-.59-.99-1.35.02-.21-.21-.22-.36-.27-.68-.22-1.44-.21-2.02-.74-.23-.21-.31.24-.53.15-.08-.04-.17-.09-.25-.13Z"/>
  <path d="m300.41,18.3c-.22.22-.12.5-.11.75,0,.29.17.37.46.27.46-.15.93-.27,1.4-.4-.6.73-.41,1.62-.48,2.44-.07.78-.03,1.57,0,2.35.01.39-.1.58-.53.54-.23-.02-.46,0-.69,0-.43-.03-.72.09-.84.55-.04.17-.17.33-.29.46-.23.25-.27.49-.08.77.14.21.22.44.11.7-.1.23-.14.51-.41.58-.35.09-.34-.28-.41-.44-.58-1.31-1.75-.91-2.71-.84-.63.05-.67-.16-.65-.61.16-4.37.13-8.75.12-13.12,0-.63.08-1.27-.1-1.89-.06-.19-.04-.41.11-.59.1-.12.12-.24.07-.4-.18-.55.19-.9.79-.89.71,0,1.44.1,2.14-.13,1.02.07,1.76.67,2,1.63.16.64.26,1.28.25,1.94-.02,1.38,0,2.75-.01,4.13-.01.74-.08,1.47-.12,2.2Z"/>
  <path d="m224.4,24.37c-.03.07-.11.16-.1.22.22,1.05-.13,2.11.05,3.16.04.23.06.45-.01.67-.11.34-.09.68,0,1.03.2.89.11.99-.77,1.24-1.1.31-2.21.34-3.31.1-.95-.21-1.95-1.1-2.01-2.29-.06-1.17-.16-2.33,0-3.49.05-.31-.23-.35-.35-.53-.2-.36-.07-.67.12-.98.2-.18.12-.42.12-.64,0-1.52-.01-3.04,0-4.56.01-1.02.28-1.99,1.11-2.63,1.21-.93,2.51-1.72,4.11-1.83.84-.06,1.68-.16,2.52-.24.14.36-.17.34-.36.41-1.26.5-2.61.7-3.87,1.17-.76.28-1.49.61-2.07,1.22.2.16.38.02.55.01.79-.04.93.07.95.86.01.51.24.7.69.57.84-.24,1.46.33,1.28,1.18-.03.13-.12.27,0,.41.15-.94.62-1.56,1.23-1.64.62-.08,1.67.42,1.87.9-.14.16-.33.22-.53.27-1.07.34-1.15.48-1.18,1.56-.03.98.13,1.96-.1,2.93-.27.24-.46.03-.64-.13-.41-.35-.64-.81-.77-1.32-.17-.61-1.04-1.38-1.66-1.43-.33-.03-.67,0-1-.04-.29-.03-.45.1-.44.38.04.78-.13,1.49-.45,2.21-.23.53-.09,1.14-.03,1.71.04.33.32.42.6.44.83.05,1.66.16,2.45.42.28.09.48-.04.63-.27.18-.28.33-.58.53-.84.21-.27.46-.5.84-.23Z"/>
  <path d="m255.98,24.24c-.56,0-.76.32-.75.83,0,.47.17.93.14,1.41-.02.35-.08.58-.5.63-.43.06-.82.43-1.32.15.09-.26.31-.49.09-.83-.11-.17.13-.29.34-.33,1.06-.25,1.06-.25.49-1.14-.28-.43-.66-.67-1.2-.62-.16.02-.37.09-.46-.06-.1-.17.14-.27.19-.42.02-.06.07-.1.1-.15.14-.25.66-.16.59-.46-.16-.66.3-1.36-.18-1.97-.08-.1-.07-.31-.25-.3-.2,0-.15.22-.21.34-.1.19-.27.39-.08.62.15.18.22.38-.01.53-.23.15-.48.37-.79.14-.21-.16-.4-.37-.71-.34-.08,0-.15-.04-.17-.14-.03-.18.42-.9.6-.96.62-.2.64-.21.24-.68-.18-.22-.06-.35.1-.46.33-.22.21-.33-.07-.44-.18-.07-.49-.05-.45-.31.02-.17.29-.18.48-.22.24-.04.46-.09.56.21.09.27.2.53.36.78.21.33.38.25.57,0,.11-.15.17-.32.2-.51.15-.96-.16-1.86-.43-2.75-.07-.21-.3-.41-.51-.52-.73-.41-1.48-.8-2.23-1.17-.15-.07-.57-.44-.41.22.04.14-.23.22-.39.26-.8.21-1.44.6-1.73,1.42-.17.47-.64.37-1.01.46-.22.05-.46-.02-.69.2.31.06.59.14.88.17.24.03.39.12.41.38-.42,0-.83,0-1.25,0-1.2-.21-2.31-.99-3.62-.55-.16.05-.33-.02-.47-.13-.65-.51-.4-2.25.34-2.61,1.74-.85,3.57-1.04,5.46-.77.37.05.75.04,1.12.03,1.23-.02,2.42.25,3.51.76,1.73.81,2.56,2.31,2.67,4.16.07,1.25.05,2.52,0,3.77-.02.43.09.71.47.89-.12.16-.12.33,0,.49Z"/>
  <path d="m229.15,14.36c-.29-.23-.51-.49-.69-.8-.04,0-.08.03-.12.03-.13,0-.24-.03-.35-.07-.1.04-.22.07-.36.07-.23,0-.4-.08-.55-.18-.17.17-.51.18-1.19.19-.02.14-.09.2-.23.24-1.35.44-2.75.73-4.09,1.19-.72.25-1.34.62-1.95,1.05-.21.15-.42.38-.29.61.11.21.32-.06.49-.09.35-.06.72-.14,1.03.03.32.18.01.48.03.73.05.62.49.94.98.6.37-.25.56-.11.78.14.25.28.51.54.19.96-.18.23-.01.47.12.68.04.06.13.14.21.07.19-.16.07-.38.1-.58.01-.1,0-.21,0-.31.06-.47.77-1.07,1.23-1.01.61.08,1.14.38,1.64.73.34.26.76.16,1.13.25.31-.18.56-.49.98-.37.08-.16.21-.23.4-.25,1.36-.19,1.35-.2,1.36-1.55,0-.91-.1-1.78-.87-2.39Z"/>
  <path d="m356.58,13.73c.97-.06,1.95-.28,2.88.15.87.4,1.74.99,1.62,2.33-.02.28,0,.57,0,.86-.75.79-1.77.53-2.68.64-.45.05-.84.04-1.01.59-.11.36-.47.36-.79.21-.17-.08-.3-.22-.47-.31-.31-.18-.56-.23-.55.26,0,.15-.03.28-.1.42-.48,1-1.22,1.08-1.94.22-.05-.06-.11-.13-.13-.21-.14-.51-.15-.52-.64-.63-.38-.09-.71-.28-.85-.65-.14-.35-.37-.51-.76-.52-.32,0-.64-.11-.75-.45-.12-.36.18-.55.38-.78.94-1.09,2.3-1.21,3.57-1.56.74-.21,1.5-.33,2.23-.57Z"/>
  <path d="m202.78,23.5c-.3.03-.48-.04-.48-.42.01-2.45,0-4.91,0-7.36,0-.21,0-.44.27-.49.55-.1,1.1-.23,1.66-.11.88.2,1.73.08,2.57-.19.73-.24,1.24-.99,1.24-1.76,0-.58.04-1.16-.01-1.73-.09-.97-.6-1.62-1.58-1.59-2.33.07-4.66.02-6.99.02-.27,0-.54-.03-.79.13,0,.15,0,.29-.11.41-.06.08-.15.17-.05.27.08.08.21.08.29.02.51-.4,1.12-.2,1.66-.21,1.97-.04,3.94.11,5.91-.09.2-.02.33.05.42.19.11.17-.06.27-.16.35-.26.22-.22.4.01.61.27.25.28.57.09.84-.59.83-1.48,1.36-2.44,1.39-.67.02-1.35.08-2.02.07-.47,0-.7.23-.56.72.15.5.12,1.01-.16,1.43-.6.89-.45,1.79-.33,2.77.12.98.23,2.01-.13,2.99-.28.74.39,1.79,1.19,1.86.14.08.28.14.42.16.01-.1.03-.19.05-.29Z"/>
  <path d="m360.7,17.09c-.29.07-.41.54-.71.44-.72-.23-1.39.14-2.09.04-.33-.05-.53.06-.58.45-.07.51-.35.6-.78.29-.12-.08-.2-.22-.32-.29-.22-.11-.45-.28-.7-.16-.3.14-.09.38-.08.59.02.47-.36.79-.62,1.09-.22.24-.57-.09-.79-.27-.24-.2-.84-.33-.29-.84.11-.1-.03-.27-.12-.38-.1-.11-.2-.07-.33,0-.47.24-.91.06-1.1-.33-.27-.55-.57-.85-1.23-.81-.23.02-.69-.21-.4-.55.54-.61,1.15-1.32,1.95-1.45,1.15-.19,2.22-.63,3.37-.81.27-.04.51-.16.71-.36-1.39-.12-2.7.16-3.98.68-.74.3-1.49.62-2.12,1.12-.93.75-1.25,1.8-1.26,2.95-.02,1.54,0,3.09,0,4.63,0,.21.08.51-.27.51-.01,0-.02,0-.03,0,.02.03.04.07.05.1,0,.01,0,.02,0,.03.13,0,.25,0,.38,0,.61.21.75.03.86-.59.18-1.04-.11-2.11.28-3.14.11-.29.16-.4.5-.29.69.22,1.4.41,2.14.31,1.16-.15,1.39.04,1.41,1.22.01.66.04,1.32.15,1.97.06.39.22.64.67.39.08-.01.17,0,.25,0,0-.05-.01-.09-.02-.14,0,0,0,0,0,0-.35-.06-.42-.23-.33-.75.16-.92.08-1.84.09-2.76,0-.5.21-.75.65-.91,1.05-.39,2.14-.57,3.26-.63,1.09-.06,1.83-.29,1.83-1.35-.12,0-.25,0-.37.02Z"/>
  <path d="m255.98,23.75c-.73-.02-.65-.02-.65-.7,0-1.62.19-3.26-.12-4.87-.18-.92-.67-1.7-1.36-2.37-1.01-.98-2.29-1.21-3.6-1.36-1.29-.15-2.59-.23-3.9-.24-1.02,0-2.01.08-2.91.68-.24.16-.6.1-.88.27-.31.2-.48.41-.39.81.08.34.05.7.11,1.04.08.41.29.59.75.43.76-.25,1.5-.2,2.18.27.22.16.48.08.73.09.27,0,.51.04.53.38-.44.27-.93.05-1.4.14-.69.14-1.37.34-2.02.6-.57.23-1.05.1-1.37-.37-.81-1.21-1.21-2.38-.23-3.49.58-.65,1.37-1.09,2.2-1.17,1.45-.15,2.89-.52,4.37-.41,1.25.1,2.57.04,3.73.52,1.79.75,3.55,1.68,3.89,3.86.22,1.4.26,2.82.15,4.24-.04.55-.1,1.14.29,1.64-.04,0-.09,0-.13,0Z"/>
  <path d="m337.73,17.81c-.1-.26-.11-.56-.37-.74-.3-.16-.34-.49-.5-.74-.23-.55-.6-.95-1.12-1.24-.6-.36-1.2-.7-1.84-1-1.76-.82-3.57-1.29-5.51-.97-1.05.18-2.16.29-3.09.85-1.62.97-3.18,2.03-4.2,3.67-.32.52-.54,1.18-.54,1.78,0,.48.04.98-.06,1.45-.11.53-.08,1.1-.15,1.64.2.29.24.68.11,1,.14,0,.28,0,.42,0,.12.02.18-.05.23-.15.13-.8.02-1.6.06-2.41.11-2.17.99-3.99,2.62-5.42,1.21-1.06,2.65-1.59,4.29-1.77,1.87-.21,3.66-.12,5.36.67,2.2,1.03,3.59,2.78,3.93,5.15.23,1.63.4,2.74-1.57,3.48-.22.08-.47.22-.31.55.7-.07,1.41-.15,2.12-.12.26-.55.29-1.15.37-1.74.19-.23.24-.49.26-.79.07-1.1-.15-2.15-.51-3.17Z"/>
  <path d="m282.06,15.95c-.58-.57-1.14-1.12-2.01-1.33-1.68-.4-3.33-.66-5.06-.38-.98.16-1.83.62-2.74.9-.45.14-.77.54-1.13.84-.26.21-.09.44,0,.67.08.19.28.36.12.62-.48-.73-.67-.74-1.31-.12-.32.3-.5.68-.7,1.07.28.1.39-.21.61-.16.28.07.64-.32.72-.12.11.26.24.55.27.85.02.22.04.46-.21.6-.22.12-.45.23-.69.04-.44-.34-.64-.16-.88.28-.38.7-.37,1.43-.31,2.17.03.35.05.67,0,1.02-.13.84-.12.85-.89.48-.28-.9-.03-1.8.08-2.67.17-1.37.73-2.66,1.49-3.81.54-.81,1.32-1.46,2.17-2,2.04-1.29,4.33-1.57,6.65-1.39,1.55.12,3,.67,3.78,2.2.04.07.04.16.06.24Z"/>
  <path d="m307.4,24.24c-.22.2-.36.37-.01.62.8.57,1.31,1.4,1.94,2.12-.17.17-.34.08-.5.1-.15.02-.24.02-.26.24-.08.81-.8,1.1-1.34,1.51-.21.16-.51.13-.6-.08-.12-.27.24-.26.39-.36.14-.09.31-.12.46-.18.3-.12.45-.45.32-.64-.36-.5-.14-1.01-.15-1.52,0-.3-.09-.43-.44-.43-.78,0-1.57-.14-2.3.28-.26.15-.46.02-.48-.26-.01-.18-.29-.42.18-.56.85-.25.92-.53.61-1.38-.12-.32-.35-.62-.3-.99.01-.1-.02-.22.11-.26.12-.04.18.07.24.15.16.19.31.39.5.55.14.11.3.33.53.1.25.1.53.07.75.25-.25.43.34.45.37.75Z"/>
  <path d="m274.08,23.5c-.2.22-.07.8-.53.69-.45-.11-.04-.53-.09-.8-.04-.22-.01-.44-.08-.67-.09-.32-.07-.58.24-.87.39-.37.51-.92.45-1.48-.02-.19-.14-.32-.32-.31-.7.01-1.19-.35-1.63-.84-.06-.07-.18-.11-.27-.14-.67-.24-.77-.43-.54-1.09.05-.13.03-.32.21-.34.16-.01.23.15.31.27.08.14.16.28.25.43.23-.14.1-.35.13-.51.03-.16-.02-.35.21-.39.23-.04.28.11.3.3.01.08.05.16.08.23.05.11.1.25.24.26.18.01.14-.16.18-.27.16-.48.53-.79.94-1.03.47-.27.22.37.64.36-.41.15-.6.29-.76.49-.22.28-.19.5.09.73.46.39.96.62,1.58.51-1.59,1.11-1.73,2.74-1.62,4.45Z"/>
  <path d="m294.43,8.4c-.19.01-.38,0-.56.04-.63.14-.7.33-.28.79.19.21.21.43.21.68.02,1.03-.1,2.05-.11,3.07-.04,2.79-.03,5.59.09,8.38.03.65.15,1.32-.06,1.97.04.05.06.11.09.16.37.02.5-.17.49-.61-.02-4.55-.01-9.1,0-13.65,0-.29-.04-.58.13-.84Z"/>
  <path d="m336.86,16.32c-.37-.41-.75-.83-1.12-1.24.76.06,1.12.45,1.12,1.24Z"/>
  <path d="m258.12,23.74c-.1,0-.24-.03-.24-.14,0-.57-.15-1.15.09-1.71.08.61-.16,1.25.15,1.84Z"/>
  <path d="m49.38,29.57c-.52-.2-.73.2-1,.5-.97.28-1.93.6-2.91.84-1.12.28-2.27.09-3.4.15-1.58.08-3.06-.21-4.52-.83-1.97-.84-3.13-2.43-3.14-4.56,0-.39,0-.78,0-1.17-.11-.35-.09-.69.13-1,.29-.35.59-.68.71-1.14.1-.36.45-.52.73-.73,1.29-.94,2.76-1.39,4.34-1.47,1.12-.06,2.23-.09,3.32-.4.21-.06.52-.04.58-.3.06-.28-.24-.42-.42-.56-.88-.72-1.91-.76-3-.68-1.29.09-2.53.38-3.75.78-.43.14-.87-.14-1.11-.53-.63-1.04-.73-2.12-.17-3.23.2-.39.58-.62.92-.81.77-.44,1.61-.77,2.53-.7.98.07,1.9-.36,2.89-.27,1.95.18,3.95.14,5.64,1.36.18.13.42.17.63.26.3,0,.24.22.23.39-.04.92-.04.92.77.98.79,1.75,1.11,3.58,1.01,5.5-.03.52-.16,1.06.11,1.56-.15.43.18.68.37.98-.41-.06-.55.06-.52.52.06.74.01,1.48.02,2.22,0,.54-.23.99-.51,1.43-.18.29-.45.54-.5.91Z"/>
  <path d="m106.85,27.98c-.19.08-.44.2-.57,0-.16-.24.15-.33.28-.46.43-.45.37-1.04-.16-1.36-.38-.23-.8-.36-1.25-.35-.42,0-.83-.07-1.24-.14-.21-.04-.44-.11-.48-.34-.09-.46-.32-.89-.25-1.39.17-1.16.08-2.34.15-3.5.03-.47-.16-.9-.43-1.27-.21-.29-.37-.58-.49-.92-.32-.84-.92-1.14-1.87-.95-.2.04-.36-.07-.54-.09-.83-.06-1.71-.37-2.32.53-.15.22-.3.15-.42-.05-.27-.46-.55-.92-.67-1.46-.27-1.3-.05-1.16-1.47-1.03-.05,0-.08.02-.09-.02.66-.01,1.24-.34,1.87-.45,1.64-.26,3.28-.56,4.95-.15.08.02.17.02.25.02,1.76,0,3.14.83,4.32,2.02.44.44.64,1.01.44,1.65-.17.52.05.92.37,1.3.26.32.5.24.58-.1.15-.64.39-1.26.39-1.92-.02-.1-.06-.19-.14-.26-.18.1-.41.17-.45-.09-.07-.45-.44-.67-.65-1.01-.84-1.36-2.2-2.02-3.62-2.43-2.15-.62-4.35-.25-6.53.02-.94.12-1.75.59-2.58,1.01-1.81.91-2.33,1.25-2.39,3.3-.05,1.59,0,3.17-.01,4.76,0,.22.08.46-.12.64-.2.31-.32.62-.12.98.34.06.25.33.25.54,0,1.13.04,2.27,0,3.4-.04.99.41,1.65,1.27,2.07,1.45.7,2.93.54,4.4.07.24-.08.34-.22.33-.45-.05-1.73.11-3.46-.09-5.18-.03-.25.01-.39.25-.42-.29-.49-.17-1.21.38-1.45.12-.12.27-.23.43-.28.12-.04.23-.09.35-.14l-.24.1c.37-.17.73-.33,1.13-.37.07-.04.14-.1.21-.14.29-.15.58-.19.89-.07.27.11.53.34.59.64.02.11.04.23.06.35.45.3.55.95.28,1.39.18.07.26.24.22.45-.2,1.19-.04,2.38-.09,3.57-.04.85.32,1.48,1.07,1.87.57.3,1.17.47,1.83.51.97.06,1.88-.31,2.84-.25.17-.74-.1-1.46-.17-2.19-.08-.82-.16-.83-.91-.52Z"/>
  <path d="m134.53,27.57c-.11-1.29-1.44-2.33-2.36-1.85-.9.46-1.86.46-2.8.37-1.16-.11-2.09-.7-2.71-1.71h0c-.49.13-.52.27-.15.74,1.25,1.57,3.87,2.21,5.85,1.43.24-.09.51-.33.74-.06.26.29.62.5.73.91-.35-.66-.8-.87-1.44-.69-.52.15-.97.72-.97,1.24,0,.19.22.5-.05.54-.38.04-.68.43-1.18.13-.76-.47-1.59-.98-2.5-.17-.22.2-.52.16-.66-.18-.09-.22-.24-.41-.47-.47-1.05-.27-1.34-1.27-1.88-2-.24-.33-.45-.65-.84-.76-.63-.18-1.24-.45-1.94-.41-.41.02-.81-.18-.81-.67,0-.9.26-1.78.12-2.69-.05-.33.12-.46.5-.34.67.22,1.04.56,1.11,1.34.09,1.11,1.05,1.56,2.02,1.05.26-.14.38-.13.55.12.24.36.54.53.88.09-.31-.84-.12-1.67.15-2.47.38-1.1,1.07-1.96,2.24-2.3,1.21-.35,2.41-.26,3.6.17.39.14.8.29,1.19,0,.97-.69,1.25-2.57.55-3.52-.76-1.03-1.87-1.46-3.03-1.78-1.4-.38-2.79-.04-4.17.18-.46.07-.91.1-1.38.28-.92.36-1.7.88-2.51,1.42-.82.54-1.41,1.32-1.82,2.1-.91,1.73-1.27,3.64-1.01,5.6.04.27-.07.29-.22.3.22.28.29.68.17,1.02.17.07.23.24.29.42.16.47.3.94.51,1.39,1.18,2.47,3.23,3.83,5.83,4.48,1.68.41,3.41.45,5.05.07,2.18-.5,2.96-1.29,2.79-3.31Z"/>
  <path d="m77.27,28.05c-.23.03-.45.06-.68.03-.32-.04-.52-.17-.57-.53-.11-.78-.59-1.31-1.27-1.64-.42-.2-.57-.49-.59-.92-.02-.68.1-1.36.17-2.03.26-2.27.46-4.53-.13-6.78-.02-.08-.03-.16-.03-.24-.07-.76.05-.91.81-1.01.92-.13,1.84-.31,2.78-.13.39.07.66-.07.75-.46-.05,0-.11,0-.16,0-.07-.02-.14-.06-.22-.1-.09.07-.23.06-.47-.02-1.39-.44-2.78-.54-4.19-.01-.37.14-.48.28-.49.64-.01.86.11,1.72.11,2.58,0,1.62.12,3.25-.1,4.87-.05.39.13,1.03-.05,1.14-.32.2-.84.07-1.27.08-.02,0-.04,0-.06,0-.54-.32-1.14-.13-1.71-.16-.38-.02-.75-.03-1.03-.32,0-2.16.01-4.33-.01-6.49,0-.85-.28-1.6-1.07-2.09-1.51-.94-3.09-.63-4.68-.29-.24.05-.38.26-.36.52.11,1.29-.14,2.58-.09,3.88.04,1.2.15,2.41-.03,3.61-.07.46.18.91,0,1.37-.23.33-.23.65,0,.98.17.02.21.13.26.29.15.5.04,1.03.17,1.53.36,1.46,1.24,2.56,2.48,3.41,2.36,1.63,5.03,1.4,7.68,1.28,1.08-.05,2.13-.3,3.12-.74.53-.23,1.05-.48,1.62-.62.21-.05.37-.09.41.18.46-.23.3-.65.32-1.02-.41-.82-.51-.87-1.4-.74Z"/>
  <path d="m78.6,28.82c-.14-.06-.21-.18-.26-.32-.12-.32-.34-.42-.69-.34-.46.1-.91.16-1.4.06-.33-.07-.4-.18-.41-.47,0-.89-.52-1.43-1.31-1.72-.38-.14-.55-.36-.55-.72-.02-.96,0-1.92.32-2.85.05-.15.05-.32.05-.49,0-1.52,0-3.05,0-4.57,0-.32-.06-.6-.23-.88-.29-.45-.18-.97-.09-1.44.08-.4.57-.28.86-.33,1.01-.16,2.03-.37,3.05-.1.29.08.37-.07.41-.31.26-.02.51,0,.75.13.22.62.21,1.29.23,1.93.06,1.83.02,3.67.02,5.5-.17.27-.2.61-.4.87-.28.36.25.38.28.61,0,.04,0,.08,0,.12-.05.44.37.64.5.99-.17.03-.37-.05-.49.13-.51.57-.19,1.09.11,1.61-.13.21.05.41,0,.62-.35.29-.1.66-.12.99-.03.21.09.45-.13.62-.18.11-.21.4-.49.37Z"/>
  <path d="m126.66,24.37c-.25.09-.4.23-.18.49.79.92,1.76,1.52,2.97,1.74,1.16.22,2.26.17,3.31-.43.11-.07.29-.11.34,0,.23.48.82.77.79,1.54-.2-.36-.26-.69-.55-.8-.28-.11-.57-.17-.9-.07-.62.18-.97.77-.74,1.39.11.29,0,.43-.28.47-.14.02-.29.03-.43.01-.32-.04-.6.56-.63.34-.07-.44-.39-.37-.58-.48-.65-.4-1.3-.71-1.99.03-.31.33-.75.13-.89-.31-.1-.31-.35-.39-.62-.43-.41-.07-.68-.29-.83-.66-.15-.35-.34-.66-.69-.84-.17-.09-.23-.23-.22-.41.02-.26-.13-.47-.33-.56-.69-.3-1.4-.7-2.17-.58-.58.09-.79-.36-1.17-.55-.03-.02-.06-.14-.03-.17.24-.32,0-.72.12-.99.29-.66.06-1.29.09-1.94.03-.59.15-.54.71-.41.99.22,1.19.85,1.29,1.71.1.87,1.15,1.24,1.82.66.31-.26.46-.39.6.12.12.45.44.51.82.28.04,0,.08,0,.12,0-.04.32.02.62.25.86Z"/>
  <path class="cls-1" d="m71.61,23.49c-.76,0-1.52-.01-2.27.02-.39.01-.52-.14-.47-.5.41-.38.33-.91.35-1.37.05-.95-.01-1.9.02-2.84.03-.87,0-1.73-.11-2.6-.08-.61-.03-1.13-.48-1.63-.24-.26.1-.62.54-.53.26.06.44.05.61-.26-.39-.02-.7-.19-1.04-.31-.12-.04-.24-.1-.23-.25,0-.12.11-.16.2-.22.67-.41.85-.36,1.13.35.04.1.08.14.19.19.67.31.83,1.14.28,1.61-.28.23-.34.49-.34.81,0,.49.04.99-.3,1.41-.05.06-.1.19-.01.22.55.17.31.62.3.94-.03.84.18,1.69-.15,2.51-.06.15.09.27.11.41.06.35.22.74-.3.91-.1.03-.23.14-.16.29.04.11.16.12.26.13.64.07,1.27.14,1.91.19.3.02.43-.12.41-.45-.14-2.39-.03-4.78-.06-7.16,0-.2,0-.51.22-.5.27,0,.25.27.23.53-.16,2.28-.04,4.57-.07,6.85,0,.1.02.21.07.3.29.48.15.67-.4.63-.24-.02-.39.1-.42.36Z"/>
  <path d="m79.22,23.38c-.55-.12-.85-.3-.31-.84.17-.17.15-.51.42-.64-.03.5.11,1-.12,1.48Z"/>
  <path d="m108.93,21.89c0-.44.03-.89-.2-1.31-.15-.28.1-.54.14-.82.04-.24.04-.48.06-.72.2.95.2,1.9,0,2.85Z"/>
  <path d="m163.22,23.46c-.12-.02-.24-.04-.36-.08-.35-.27-.28-.64-.27-1.02.02-1.49.16-2.96-.28-4.46-.67-2.31-2.57-3.54-4.82-3.72-1.47-.12-2.94-.2-4.42-.12-.62.03-.86-.26-.85-.78.02-.97-.2-1.92-.18-2.89.02-.81-.33-1.31-1.11-1.52-.92-.25-1.87-.42-2.83-.38-.35.01-.72.09-.76.49-.04.43.38.41.66.5.06.02.07.04.03.1-.74.1-.84.65-.84,1.27,0,2.91,0,5.81,0,8.72,0,.84-.07,1.68.13,2.52.1.4-.08.82-.18,1.21-.09.34-.45-.13-.64.1-.02.03-.02.07-.01.12-.02.33.07.67-.12.98.04.04.09.09.13.13.19.19.67-.25.7.32.04.63.47.86,1.03.98.55.11,1.1.21,1.62.44.63.28.72.54.43,1.16-.32.66-.14,1.15.53,1.46.26.12.56.17.82.3.21.11.31,0,.36-.18.05-.2.04-.41.04-.61,0-.99,0-1.98,0-2.96,0-.44.08-.85.58-1.02,0,0,.02,0,.03,0-.01-.03-.03-.06-.04-.09-.11-.32,0-.63.19-.88,0-.07.02-.14.03-.22-.12-.01-.23-.04-.34-.08-.18-.08-.31-.21-.3-.43.01-.89-.24-1.76-.13-2.65.07-.59.14-1.16-.25-1.76.47.14.87.25.89-.3.02-.45.28-.44.61-.5,1.2-.23,2.3.17,3.42.48.56.16.77.59.92,1.19.23.95.3,1.85-.06,2.76,0,.02-.01.02-.01.03,0,0,0,0,0,.03.04.8,0,1.61,0,2.41.01.89.57,1.52,1.46,1.63.41.05.82.12,1.24.16.41.04.7.23.8.66.08.36.31.63.59.85.21.16.42.4.71.28.3-.13.26-.44.27-.71.05-.82-.07-1.65-.02-2.47.03-.42.21-.55.61-.4,0,0,.01,0,.02,0-.06-.34-.07-.68-.03-1.03Z"/>
  <path d="m156.86,24.62c.53-.35.53-.75,0-1.12-.21-.24-.17-.54-.17-.83-.01-.74.02-1.48-.12-2.22-.39-2.05-2.11-2.17-3.6-1.49-.27.12-.29.39-.28.64.04,1.03-.19,2.05-.14,3.08.01.24.03.5-.18.69-.21-.12-.38-.27-.37-.53.05-1.12-.33-2.24-.02-3.37.09-.32-.07-.64-.31-.89-.11-.11-.22-.28-.05-.43.16-.14.3-.09.41.08.1.15.24.24.42.14.2-.11.11-.27.07-.43-.1-.38.07-.52.46-.51.7.02,1.41-.22,2.08.02.82.28,1.77.22,2.43.91.17.17.34.4.3.59-.13.58.09,1.03.39,1.49.11.16.09.37-.06.52-.35.36-.39.8-.38,1.26,0,.78,0,1.55,0,2.33,0,.71.56,1.37,1.26,1.43.33.03.66.1.98.12.72.02,1.22.17,1.32,1.03.04.37.51.63.87.83.25.14.3-.05.3-.22,0-.68.05-1.37-.05-2.03-.05-.37,0-.74.02-1.08.02-.4.47-.3.78-.13-.43-.03-.37.28-.37.54,0,1.61-.02,3.21,0,4.82,0,.51-.17.73-.67.84-1.55.35-3.06.5-4.48-.45-.57-.38-.84-.89-.85-1.55,0-1.36,0-2.72,0-4.08Z"/>
  <path d="m202.72,24.49s-.01-.08-.01-.13c-.13,0-.27,0-.4,0-.26-.15-.4-.1-.6.16-.87,1.1-.22,2.58-.99,3.71-.16.23-.21.57-.46.81-.49.47-1.05.59-1.7.53-.33-.03-.72.04-1-.03-.43-.1-.17-.64-.27-.99,0-.02-.02-.04-.02-.06-.37-1.34-.19-2.73-.3-4.09-.03-.35.2-.72.18-1.08-.09-1.58-.24-3.15-.19-4.74.02-.59.17-1.18.09-1.78-.09-.66-.44-1.28-.23-1.98.04-.14-.02-.27-.14-.38-.46-.41-.9-.8-1.6-.52-.22.09-.49-.01-.74-.01-.65,0-1.16-.36-1.74-.54-.85-.26-1.21-.67-1.28-1.54-.04-.55.18-.87.71-.97.65-.13,1.3-.22,1.96-.26.99-.05,1.98-.15,2.96-.25.26-.03.5-.13.36-.48-.18-.19-.41-.18-.64-.18-1.37,0-2.74-.02-4.11,0-1.08.01-1.94.69-2.25,1.71-.18.58-.19,1.17-.12,1.77.19,1.62.79,2.17,2.41,2.21.79.02,1.57-.11,2.36-.02.9.07,1.02.19,1.03,1.09,0,.23,0,.45,0,.68.03,2.05-.05,4.1.04,6.15.03.15.11.26.2.37.3.36.21.58-.23.69-.08.02-.15.06-.2.13.28.13.4.33.39.66-.03,1,.03,2.01-.02,3.01-.06,1.07.34,1.86,1.26,2.4q.37-.52.82-.06c.09.09.18.17.31.19.99.14,1.96-.05,2.94-.11.67-.04.83-.28.82-.9-.04-1.48.01-2.96-.03-4.44-.01-.46.09-.7.43-.75Z"/>
  <path d="m146.51,24.62s.04,0,.06,0q.69-.35.81.48c.07.46.41.56.79.64.69.15,1.39.25,2.02.59.54.3.64.67.33,1.16-.46.73-.22,1.27.66,1.44.25.05.47.1.69.34,0-1.37-.01-2.67,0-3.97,0-.45.07-.92.74-.81-.11.08-.12.21-.12.33-.05,1.39.12,2.8-.12,4.19,0,.04,0,.08,0,.12.1,1.5.11,1.56-1.39,1.76-.95.12-1.94.16-2.88-.22-1.05-.42-1.63-1.18-1.59-2.31.03-.85-.16-1.67-.14-2.52,0-.41.08-.81.14-1.22Z"/>
  <path d="m195.68,24.49c.05-.34.33-.61.25-.98.08-.07.16-.08.24,0,.3.11.49.31.42.64-.1.44-.47.35-.79.36-.04,0-.08,0-.12,0Z"/>
  <path d="m197.43,30.56c-.01-.21.05-.4.17-.57.15-.2.31-.25.48,0,.15.23.32.46.48.69-.04.04-.08.08-.12.12-.34,0-.63-.35-1-.12,0-.04,0-.08,0-.12Z"/>
  <path d="m268.2,24.62c.1-.18.2-.35.33-.6.61.88,1.6.83,2.47,1.06.34.09.48.12.3.48-.13.26.25.82.66,1.01.56.26,1.09.48,1.02,1.29-.04.49.72.89,1.34.83.56-.05,1.11-.12,1.6.32.44.39,1.39.22,1.8-.23.27-.29.56-.39.94-.23.23.09.46.17.72.16.36-.02.66-.05.42-.53-.04-.09-.13-.19-.03-.28.12-.1.24-.03.33.05.15.14.3.28.44.43.15.16.3.2.49.08.19-.12.47-.25.34-.51-.12-.24-.35-.1-.53.02-.04.03-.11.02-.17.03.1-.56.15-.6.64-.4.2.08.41.21.58.03.2-.2.03-.44-.08-.61-.2-.31-.43-.6-.69-.86-.15-.15-.36-.2-.62-.07-1.56.78-3.13.76-4.69.01-.42-.2-.71-.54-.87-.99.59.2,1.01.74,1.63.86,1.09.23,2.18.25,3.24-.18,1.02-.41,1.7-.16,2.2.79.88,1.7.45,3.03-1.26,3.88-.79.39-1.64.54-2.51.59-2.11.12-4.16-.09-6.03-1.13-1.76-.98-3.12-2.36-3.85-4.28-.13-.33-.18-.67-.15-1.03Z"/>
  <path d="m274.45,24.37c.14,0,.28-.02.37.12-.15.02-.23.08-.1.22.11.12.23.23.22.41-.3.01-.62-.43-.91.05-.05.09-.19.03-.26-.06-.1-.14-.07-.26.03-.39.16-.22.44-.21.65-.34Z"/>
  <path d="m224.4,24.37c-.38-.05-.65.09-.79.45-.02.04-.04.07-.06.11q-.62,1.07-1.77.79c-.54-.13-1.09-.23-1.65-.23-.85,0-.93-.14-.99-.96-.06-.79-.02-1.52.41-2.23.24-.4.08-.89.09-1.34.02-.65.03-.65.66-.57.25.03.5.03.75.01.44-.03.83.03,1.07.45.02.04.05.09.07.09.88,0,.77.72.95,1.25.19.58.49,1.09,1.12,1.31.11,0,.2.03.26.13-.26.24-.25.49,0,.74-.04,0-.08,0-.12,0Z"/>
  <path d="m320.88,23.5s.08-.08.12-.13c.27-.09.42-.26.45-.57.02-.29.01-.57,0-.86,0-.54-.02-1.06.27-1.56.16-.27.09-.6.13-.91.04-.33.18-.63.53-.68.33-.05.43.27.55.5.28.52.35,1.1.4,1.67.05.65.31,1,.99,1.12.43.07.85.17,1.29.1.3-.05.58-.19.6-.53.02-.3-.28-.31-.49-.37-.48-.14-.65-.54-.65-.95,0-.41.2-.81.54-1.06.29-.21.69.07.79.6.09.44.31.54.7.41,1.16-.28,2.39-.23,3.54-.61.25-.08.64-.02.7-.3.07-.32-.34-.41-.54-.6-.51-.48-1.21-.35-1.81-.53-.47-.34-.92-.7-1.51-.84-.57-.14-1.04.04-1.28.58-.19.42-.39.8-.93.76-.44-.03-.88-.56-.93-1.1-.03-.34-.13-.63-.34-.91-.37-.49-.35-.7.14-1.09,1.14-.93,2.48-1.42,3.93-1.57,1.22-.12,2.47-.07,3.66.16,1.2.23,2.36.67,3.26,1.57.63.63,1.3,1.22,1.64,2.08.21.53.32,1.07.35,1.62.03.52-.33.65-.78.66-.71.02-.96-.09-.95-.58.02-.55-.21-.95-.56-1.32-.57.45-.75,1.05-.69,1.76.05.5-.34.98-.07,1.5.05.1-.02.25-.17.29-.13.04-.25-.02-.34-.11-.25-.27-.5-.55-.69-.87-.1-.17-.19-.34-.43-.25-.2.08-.29.26-.26.45.09.63.37,1.22.34,1.87,0,.13.17.17.29.18.58.02,1.17.09,1.69-.26.23-.15.47-.27.75-.28.18,0,.33.08.39.25.06.17-.04.29-.17.36-.26.15-.45.36-.62.6-.49.26-1.01.07-1.52.12-.18.02-.38-.02-.56.01-.26.04-.64.03-.69.29-.05.28.4.1.52.31-1.42-.05-2.83.08-4.24.13-.08.04-.16,0-.24-.01-.35-.09-.74-.03-.88.28-.14.31.24.48.46.65,1.5,1.18,3.13,1.7,5.05,1.16.78-.22,1.57-.38,2.27-.81.25-.15.51-.19.74.04.23.22.08.43.03.67-.35,1.72-1.82,2.29-3.17,2.85-.83.34-1.84.61-2.74.36-1-.28-2.07-.31-3-.82-.37-.2-.59-.45-.49-.89.03-.12.09-.25-.05-.33-.13-.07-.24.02-.34.1-.4.32-.72.19-1.03-.13-.06-.06-.1-.14-.17-.18-1.29-.57-1.9-1.78-2.71-2.79-.24-.31-.5-.05-.73-.13-.1,0-.19-.02-.24-.12-.02-.33.07-.68-.12-.99Z"/>
  <path d="m321.25,24.62c.53-.4.47-.35.93.16.45.51.84,1.06,1.2,1.63.14.22.32.36.56.47.42.18.81.4,1.09.79.24.34.52.39.81.04.16-.19.34-.29.6-.14.3.18.08.35.01.52-.14.33-.04.61.27.71.59.19,1.11.7,1.82.42.09-.04.27.01.35.08.64.6,1.38.43,2.12.3.35-.06.68-.14,1.04-.16.73-.04,1.25-.59,1.89-.86.17-.07.3-.23.46-.31.5-.24.8-.63.92-1.16.05-.23.06-.49.28-.67.16-.13.15-.28,0-.42-.13-.12-.28-.21-.44-.09-1.01.73-2.22.84-3.39,1.08-1.51.31-2.7-.34-3.88-1.1-.29-.19-.56-.42-.8-.68-.31-.33-.25-.46.17-.63.35-.14.68-.33,1.01.02-.14.17-.34.11-.52.12-.17,0-.36,0-.42.19-.07.19.12.29.23.4.61.61,1.39.84,2.2,1.03.91.21,1.75-.13,2.62-.18.95-.05,1.81-.35,2.68-.65.64-.22,1.42.36,1.71,1.2.56,1.59-.11,3-1.81,3.64-1.12.42-2.28.71-3.5.69-1.72-.02-3.42.04-5.08-.6-2.59-1-4.32-2.74-5.07-5.41-.04-.14-.03-.28-.05-.43Z"/>
  <path d="m107.93,30.69c.04.32-.01.65,0,.98.04-.03.07-.07.12-.09v-7.33c0-.21.01-.39.13-.58.17-.28.24-.61.24-.93,0-1.29.03-2.58-.01-3.87-.02-.44.05-.94-.35-1.3-.15.72-.3,1.45-.45,2.22-.61-.56-.83-1.13-.49-1.82.1-.2,0-.35-.06-.53-.43-1.3-1.57-1.85-2.66-2.45-1.27-.7-2.72-.62-4.09-.72-1.78-.13-3.52.32-5.23.82-.25.07-.43.2-.56.44.47-.19.96-.15,1.44-.21.2-.02.25-.07.29.18.15.88.46,1.7.92,2.47.23.39.29.32.54.05.23-.25.31-.71.74-.68.62.05,1.29-.26,1.85.25.09.08.17.04.27-.02.53-.33,1.03-.27,1.36.24.43.68.84,1.38,1.14,2.12.31.75.06,1.57.08,2.36.02.96-.23,1.92.03,2.9.11.43.3.6.73.69.67.14,1.38-.02,2.02.25.3.13.7.16.76.62.07.46-.19.67-.54.86-.13.07-.35.17-.24.36.1.17.26.39.48.33.25-.07.55-.03.74-.27.3-.36.37-.17.42.17.14.83.14,1.67.37,2.49Z"/>
  <path d="m79.34,26.22c-.73-.59-.78-1.31-.11-1.61.26.52.06,1.07.11,1.61Z"/>
  <path d="m79.22,27.83c-.2-.36-.58-.74.12-.99-.04.33.13.68-.12.99Z"/>
  <path d="m23.45,27.05c-.36-1.39-.47-1.44-1.91-1.44-.37,0-.75-.04-1.12,0-.32.04-.56-.02-.73-.18-.5,0-1-.03-1.5-.1-.05.03-.1.05-.17.06-.78.06-1.57.07-2.35,0-.2-.02-.34-.16-.35-.37-.02-.24.16-.3.35-.36.11-.04.26-.04.34-.12-.04-.05-.07-.1-.09-.15-.49.03-.86-.07-.72-.76-.36-.37-.63-.75-.38-1.31.1-.23-.02-.5-.18-.69-.32-.39-.38-.85-.38-1.34,0-1.83.01-3.67,0-5.5,0-.67.08-1.29.33-1.93.33-.82.25-1.6-.5-2.24-.68-.58-2.56-.94-3.39-.56-.21.1-.45.23-.37.5.22.67.05,1.35.05,2.03.02,3.05,0,6.1.02,9.15,0,.63-.34,1.09-.56,1.61-.15.34-.54-.09-.79.09-.03.02-.07.04-.11.07-.05,0-.1,0-.16,0,.17.34.15.76-.06,1.07.28.12.39.35.31.78-.18.93,0,1.87.07,2.8.02.33.14.67.33.98.7,1.16,1.8,1.53,3.06,1.55,1.79.03,3.58,0,5.36,0,.26,0,.56-.07.71.25.36-.22.72-.39.99.12.03-.33.26-.38.53-.37.43,0,.87.02,1.3,0,.91-.05,1.69-.41,2.03-1.27.3-.75.23-1.59.03-2.36Z"/>
  <path d="m349.34,23.75c.7-.02.71-.03.64-.68-.03-.24-.06-.5.08-.72.21-.35.2-.7,0-1.05-.1-.17-.11-.35-.01-.53.2-.36.34-.74.31-1.17-.02-.29.13-.35.4-.21.81.44,1.67.61,2.6.42.94-.19,1.32.14,1.36,1.2.02.72.06,1.43.12,2.14.03.39.16.51.52.48-.01.26-.03.51.12.74-.1,0-.19.02-.25.12-.24.26-.33.58-.32.91.03.9-.09,1.8-.09,2.7,0,.48-.18.86-.67.99-.64.18-1.29.3-1.96.26-.67-.05-.89-.5-.52-1.07.2-.31.52-.47.81-.66.59-.4.56-.76-.09-1.07-.59-.28-1.15-.65-1.88-.5-.36.07-.55-.21-.54-.53.02-.54-.23-.94-.61-1.28,0-.16,0-.33,0-.49Z"/>
  <path d="m355.21,24.49c-.35.02-.47.3-.48.56-.05,1-.09,2-.08,3.01,0,.5-.13.78-.61.9-.58.14-1.17.27-1.77.24-.22,0-.49.07-.61-.19-.14-.28.04-.51.19-.73.23-.32.61-.43.92-.63.27-.17.36-.37.33-.66-.03-.29-.19-.44-.46-.52-.3-.08-.58-.21-.84-.39-.31-.21-.65-.25-1.01-.23-.66.05-.68.05-.68-.65,0-.53-.2-.87-.76-.96-.13,0-.26,0-.39,0,0,.04-.02.08-.04.13.2.04.31.21.31.49,0,1.19.04,2.38.09,3.57.05,1.08.57,1.76,1.48,2.14,1.35.56,2.73.52,4.11.03.34-.12.45-.3.43-.63-.07-1.83.13-3.66-.13-5.48Z"/>
  <path d="m15.19,23.63c-.71-.26-.82-.5-.55-1.18.11-.27.07-.56-.15-.74-.37-.3-.42-.68-.42-1.1,0-2.19,0-4.37,0-6.56,0-.38.08-.72.28-1.05.82-1.34-.51-2.95-1.74-2.87-.55.04-1.11-.15-1.65.01-.3.09-.84.08-.34.62.06.06.08.2.07.29-.25,1.89-.07,3.78-.1,5.68-.03,1.69-.01,3.38,0,5.07,0,.4-.25.75-.3,1.07-.15,1-.65.91-1.33.63-.53-4.09-.1-8.2-.25-12.29-.01-.39.16-.71.27-1.06.08-.25.3-.23.51-.26,1.15-.15,2.31-.12,3.47-.12,1.11-.16,2.18.59,2.38,1.67.06.33.07.66.04.99-.24,3.15-.06,6.3-.1,9.45,0,.63.09,1.26.56,1.75-.21,0-.42,0-.63,0Z"/>
  <path d="m15.89,23.62c.04-.12.1-.23.19-.35-.16.21-.1.22-.1,0,0-.05.02-.08.02-.13-.09-.08-.14-.21-.09-.48.08-.42.15-.86.14-1.28-.04-2.94.14-5.89-.11-8.83-.09-1.05-.48-1.94-1.28-2.64-.57-.5-1.24-.56-1.72-.17.08.03.15.08.23.1,1.69.26,2.13,1.23,2.02,2.42-.03.28-.11.57-.11.85,0,3.03-.04,6.06.02,9.08,0,.48-.23,1.3.72,1.41h.07Z"/>
  <path d="m162.85,23.38c-.45.07-.52-.18-.5-.55.05-1.09.21-2.2.1-3.28-.15-1.45-.52-2.87-1.71-3.91-1.01-.88-2.21-1.21-3.53-1.31-1.47-.12-2.94-.13-4.41-.1-.54,0-.78-.3-.78-1.09,0-1.06-.2-2.11-.19-3.18,0-.61-.58-.91-1.12-1-.89-.14-1.78-.39-2.7-.32-.12,0-.25.02-.36.07-.13.06-.26.16-.23.33.03.17.18.21.33.22.19.01.37.01.55.05.11.02.26.07.25.23-.01.14-.14.18-.27.21q-.92.22-.92,1.14c0,3.36,0,6.72,0,10.07,0,.35-.04.7.17,1.02.07.11.1.24.03.35-.21.34-.21.7-.2,1.07,0,.15,0,.31-.15.38-.2.1-.22-.12-.32-.2-.12-.09-.21-.3-.4-.09-.04,0-.08,0-.12,0,0-4.77.01-9.54-.01-14.31,0-.6.19-.82.78-.8.37,0,.74-.08,1.1-.12,1-.34,2.95-.24,3.54.46.44.53.77,1.05.76,1.76-.01.82-.04,1.65.02,2.47.05.66.17.74.82.67.56-.06,1.1-.24,1.65-.29,1.81-.15,3.54.07,5.13,1.09,1.42.9,2.25,2.16,2.63,3.75.35,1.42.19,2.87.2,4.31,0,.15-.06.28-.16.39,0,.17,0,.33,0,.5Z"/>
  <path class="cls-2" d="m226.14,18.67c.38.09.84-.2,1.13.25,0,.62,0,1.24-.01,1.86-.27.6-.09,1.2-.03,1.8.04.4,0,.77-.34,1.05-.46,0-.91,0-1.37,0-.48-.21-.68-.54-.58-1.08.12-.68.04-1.36-.1-2.02-.18-.81.07-1.36.81-1.71.17-.04.33-.09.5-.13Z"/>
  <path class="cls-3" d="m225.64,18.8c-.85.61-.73,1.43-.55,2.3.09.42.13.88.03,1.29-.13.54.04.9.4,1.24-.33,0-.66,0-1,0-.1,0-.2-.03-.26-.13,0-1.07,0-2.13,0-3.2,0-.97.08-1.08,1.02-1.4.12-.04.24-.07.35-.1Z"/>
  <path class="cls-3" d="m226.89,23.63c.28-.62.19-1.25.05-1.88-.08-.38,0-.71.31-.97.26.84.1,1.71.12,2.56,0,.3-.17.45-.49.29Z"/>
  <path d="m334.74,23.75c-.17-.43.16-.51.43-.65.12-.06.32-.09.25-.29-.07-.19-.25-.19-.42-.12-.12.05-.27.05-.35.13-.62.61-1.4.4-2.13.43-.24,0-.46-.11-.37-.36.19-.57-.06-1.04-.24-1.54-.16-.47,0-.81.37-.97.31-.13.48-.09.59.28.14.46.55.75.93,1.09-.5-.74.2-1.39.06-2.09-.02-.12,0-.25,0-.37-.03-.31.06-.57.36-.72.16-.08.28-.18.25-.38-.02-.12-.18-.29.07-.34.18-.04.22.16.29.27.3.46.83.84.56,1.52-.02.04.02.12.05.17.3.48.75.07,1.12.17.23.06.33-.26.3-.51-.15-1.07-.5-2.03-1.26-2.88-.93-1.04-2.08-1.68-3.37-2.09-.79-.25-1.63-.22-2.45-.28-1.55-.11-3.05.1-4.45.83-.44.23-.84.52-1.22.84-.28.23-.29.44-.05.66.35.32.48.69.46,1.16-.01.35.47.91.79.92.43,0,.63-.26.73-.68.14-.59.85-.84,1.47-.71.51.11.86.47,1.32.64.13.05.16.18.17.31-.1.18-.29.22-.46.27-.57.18-.99.55-1.36,1.01-.27.33-.27.62-.05.95-.56.2-.83.09-.86-.42-.02-.34-.12-.59-.45-.63-.37-.05-.26.35-.42.51-.29.31-.18.61-.04.95.11.26.25.36.51.34.28-.02.53.08.59.35.08.31-.13.56-.38.72-.49.3-1.04.19-1.57.11-.02,0-.04-.02-.06-.02-1.12-.05-1.28-.81-1.34-1.7-.03-.53-.18-1.04-.46-1.51-.16-.28-.29-.24-.46-.04-.06.08-.17.17-.16.25.08,1.06-.67,2.03-.38,3.11.08.31-.11.56-.16.83-.06.36-.34.04-.5.13,0-.87-.05-1.73.01-2.59.17-2.2,1.09-4.05,2.8-5.49.85-.71,1.8-1.34,2.87-1.49,1.78-.25,3.56-.56,5.4-.03,1.94.56,3.47,1.56,4.52,3.21.88,1.38,1.2,2.96.97,4.58-.11.79-.73,1.26-1.47,1.54-.26.1-.59.12-.62.5-.23.16-.5.13-.76.13Z"/>
  <path d="m163.11,17.79c-.01-.09,0-.19.02-.27-.02,0-.03-.01-.05-.01-.04,0-.07-.13-.1-.21-.46-1.29-1.46-2.19-2.52-2.92-1.51-1.05-3.28-1.47-5.15-1.4-.37.01-.72.17-1.11.13-.3-.03-.46-.14-.46-.45-.02-.87-.23-1.71-.62-2.47-.37-.74-.55-1.65-1.48-2.03-.73-.3-1.5-.41-2.26-.6-.58-.15-1.03.2-1.14.71.67,0,1.33,0,2,0,1.19.02,2.11.96,2.13,2.13.02,1.01-.03,2.01.05,3.02.03.37.16.43.44.41.51-.03,1.04-.04,1.54-.16,1.96-.45,3.79-.21,5.55.81,1.65.95,2.48,2.39,2.79,4.2.24,1.39.06,2.79.12,4.19.13-.05.3.02.45.05.03-1.72.06-3.44-.2-5.14Z"/>
  <path d="m303.21,17.81c.37-.31.54-.63.7-.98.41-.89,1.02-1.63,1.8-2.23.4-.31.87-.53,1.38-.26.62.33,1.32.48,1.89.91.13.1.31.19.24.39-.07.17-.19.32-.43.25-.38-.11-.42.21-.48.42-.15.47-.39.86-.77,1.17-.34.29-.51.66-.65,1.08-.28.8-1.03,1.18-1.69,1.63-.61.42-1.27.81-1.17,1.71.02.14.02.32-.19.32-.2,0-.24-.12-.26-.32-.07-.54-.17-1.08-.31-1.6-.1-.35-.04-.51.34-.52,1.01-.03,1.56-.8,2.24-1.36.03-.03.08-.07.08-.09-.31-.77.52-.74.79-1.1.09-.12.33-.15.26-.36-.06-.18-.23-.29-.43-.3-.29-.01-.58.01-.87-.03-.17-.03-.37-.14-.29-.39.09-.24.26-.23.44-.09.27.21.51.06.62-.15.15-.27-.17-.32-.33-.41-.62-.33-.82-.23-1.11.42-.18.41-.39.8-.63,1.17-.25.38-.57.71-1.16.71Z"/>
  <path d="m303.28,17.81c-.09.28-.16.58-.27.85-.17.42-.55.21-.85.26.15-.6.35-1.13,1.12-1.11Z"/>
  <path d="m246.49,24.62c-.12-.08-.23-.17-.36-.23-.3-.16-.86.01-.78-.67.01-.1-.23-.65-.79-.15-.56.5-1.43.76-2.24.73-.35,0-.63.13-1,.14,0-.31.05-.62-.07-.92-.12-.29-.05-.56.24-.75.3-.2.44-.02.58.21.09.15.25.16.35,0,.11-.19.13-.38-.03-.57-.45-.5-.46-.61.2-.79,1.33-.37,2.68-.65,4.02-.96.94-.22,1.91-.31,2.82-.66.2-.08.39-.16.56.07.16.21.06.4-.07.56-.23.31-.18.87-.83.82-.21-.02-.28.23-.07.4.11.09.25.16.35.26.34.36.48.24.48-.2,0-.24.06-.42.35-.36.26.06.36.33.23.48-.75.85-.24,1.35.47,1.81.15.1.37.18.27.41-.08.19-.29.12-.45.12-.29-.01-.51.15-.76.25-.17.16-.38.11-.59.09-.72-.05-1.43-.05-2.15.06-.26.04-.54.06-.76-.15Z"/>
  <path d="m246.49,24.62c.7-.04,1.39-.09,2.09-.13.47-.03.94.02,1.4.12.4,1.13-.19,1.96-1.4,1.98-.74,0-1.48.06-2.14-.44-.74-.56-.74-1.15.05-1.53Z"/>
  <path d="m253.16,17.33c-.42.14-.64.28-.41.69.12.22-.08.42-.33.3-.26-.13-.72-.14-.71-.44,0-.28.37-.49.69-.53.21-.03.42-.22.77,0Z"/>
  <path d="m352.3,18.38c0,.18-.1.27-.26.27-.18,0-.26-.14-.26-.28,0-.15.06-.37.25-.36.18,0,.2.23.27.37Z"/>
  <path d="m40.47,17.19c-.82,0-1.64-.13-2.46,0-.31.05-.65.05-.8-.31-.15-.37.04-.69.26-.96.15-.19.38-.31.63-.37.46-.09.82-.26.98-.8.1-.33.49-.39.82-.13.63.48,1.47.5,2.11.07.49-.34,1.04-.21,1.57-.16.09,0,.33.11.19.22-.32.26.45.69-.18.85-.26.07-.51.17-.75.29-.11.05-.25.17-.25.25.01,1.39-1.09.91-1.81,1.07-.1.02-.21,0-.31,0Z"/>
  <path class="cls-2" d="m43.09,24.49c.2,0,.34,0,.49,0,.41-.02.84-.04.92.48.08.48.03.97-.47,1.24-.95.51-1.94.51-2.93.16-.35-.12-.59-.41-.66-.77-.1-.45-.09-.86.56-.92.72-.07,1.42-.23,2.1-.19Z"/>
  <path d="m48.87,25.65c.14-.76-.22-1.46,0-2.22.1-.37.08-.78-.23-1.16-.28-.33-.24-.87-.19-1.24.11-.91.03-1.81.08-2.71,0-.14-.03-.31.11-.4.2-.13.29.1.4.19.41.32.54,1.07.22,1.49-.3.39-.34.77-.25,1.26.17.94.28,1.89.29,2.85,0,.47.37.92.09,1.4-.1.18-.06.47-.49.52Z"/>
  <path d="m42.31,23.13c-.47,0-1.28-.7-1.37-1.16-.07-.35.11-.46.41-.43.32.04.64.16.97.18.64.04.75.66.84.99.09.36-.47.43-.85.42Z"/>
  <path d="m40.42,21.08c.89-.15,1.72-.51,2.61-.67.16-.03.32-.07.48-.11.16-.04.36-.26.47,0,.1.24-.2.25-.33.36-.97.82-2.12.44-3.22.42Z"/>
  <path d="m37.57,23.5c.04-.51.46-.6.83-.72.21-.06.36,0,.37.27.01.36-.19.46-.51.45-.18,0-.37,0-.7,0Z"/>
  <path d="m40.4,22.89c-.05.32-.24.36-.46.36-.41,0-.43-.33-.48-.6-.03-.2.16-.27.34-.25.33.03.47.29.6.49Z"/>
  <path d="m47.38,15.44c.1.05.33-.05.35.19.02.16-.12.18-.25.19-.18,0-.33-.02-.33-.25,0-.12.06-.18.23-.13Z"/>
  <path d="m92.7,18.49c.96.64,1.93.77,2.95.57.3-.06.53-.18.72-.43.13-.16.35-.27.56-.16.21.11.16.33.09.5-.3.73-.1,1.44,0,2.17.04.26.04.54,0,.8-.12.58-.31,1.15-.09,1.75.27.71-.1,1.39-.14,2.09-.03.44-.56.64-.89.33-.47-.45-1.03-.5-1.61-.48-.41.02-.81-.13-1.23-.04-.23.05-.34-.11-.37-.32-.04-.4-.08-.79-.04-1.21.09-1.15.04-2.31.04-3.46,0-.68,0-1.36,0-2.1Z"/>
  <path class="cls-2" d="m102.16,20.85c-.11-.71-.04-1.51-.83-2.02-.98-.63-1.93-.38-2.92-.14-.46.11-.6.35-.61.83-.01,1.21.13,2.42-.09,3.63-.05.26.06.33.21.34.09-.19.22-.35.43-.44.12-.12.27-.23.43-.28.12-.04.23-.09.35-.14l-.24.1c.37-.17.73-.33,1.13-.37.07-.04.14-.1.21-.14.29-.15.58-.19.89-.07.27.11.53.34.59.64.02.11.03.22.04.34.12.08.22.18.29.3.1-.06.14-.17.14-.36-.02-.74.08-1.49-.03-2.22Z"/>
  <path d="m93.78,16.09c-.01.12-.09.18-.2.2-.12.03-.22-.01-.2-.14.01-.1.11-.17.22-.18.08,0,.17.01.17.12Z"/>
  <path d="m128.71,14.2c1.22.11,2.56-.06,3.74.66.09.05.19.09.27.15.67.45.73.79.25,1.39-.29.36-.7.65-.74,1.18-.01.19-.2.23-.39.14-.72-.37-1.5-.4-2.29-.41-.36,0-.68-.06-.57-.57.04-.19-.08-.37-.22-.49-.27-.22-.62-.38-.26-.8.06-.07-.01-.2-.14-.23-.19-.03-.4-.06-.5.14-.1.2-.19.43-.19.64,0,.49-.28.64-.69.69-.74.08-.9.29-.76.98.04.21-.56,1.26-.76,1.33-.22.08-.3-.08-.36-.24-.15-.36-.35-.75-.37-1.09-.03-.59-.38-.67-.78-.7-.44-.03-.54-.32-.63-.64-.1-.38.25-.4.44-.56.96-.84,2.15-1.16,3.35-1.48.52-.14,1.03-.03,1.61-.09Z"/>
  <path d="m71.67,29.25c-1.22.62-2.63.4-3.8-.62-.47-.41-.97-.54-1.54-.33-.24.09-.37.09-.49-.16-.33-.7-.95-1.17-1.43-1.75-.64-.77-1.05-1.71-.72-2.79.2-.64.19-1.28.12-1.97-.13-1.3-.21-2.63.07-3.93.17-.78-.1-1.5-.24-2.22-.07-.37-.01-.48.26-.59.74-.29,1.52-.22,2.27-.12.5.07,1.03.03,1.48.38.22.17.32.32.35.6.14,1.5.08,3,.13,4.5.04,1.18-.12,2.34-.12,3.51,0,.56.4.97.64,1.44.1.2.26.37.42.53.44.43.77,1,1.6.82.43-.09.93.1,1.4.19.32.06.64.71.52,1-.06.15-.19.22-.33.25-.21.04-.21-.12-.26-.26-.23-.62-.48-.66-.89-.18-.09.11-.16.24-.26.34-.35.34-.33.61.14.77.32.11.51.32.7.57Z"/>
  <path d="m16.55,24.94c-.28-.11-.48-.28-.6-.48-.07.03-.14.04-.21.03-.39-.04-.68.08-.65.51.02.44.28.63.74.61.55-.03,1.11,0,1.67,0,.64,0,.9,0,1-.23-.66-.07-1.31-.2-1.95-.44Z"/>
  <path d="m128.45,27.59c-.51-.16-1.1-.29-1.51-.78-.11-.14-.22-.29-.12-.44.1-.15.27-.02.4.02.54.18.97.62,1.56.71.12.02.24.12.2.27-.06.24-.27.21-.53.22Z"/>
  <path d="m194.94,15.21c.15.44.77.68.59,1.25-.12.37-.09.73-.09,1.1,0,1.48,0,2.96,0,4.45,0,.32,0,.53-.04.68.09.26.14.54.16.81.12,0,.25,0,.37,0,.08,0,.16,0,.24,0,0-2.36,0-4.72,0-7.07,0-1.12-.1-1.22-1.25-1.22Z"/>
  <path class="cls-2" d="m327.13,20.4c-.46-.16-.46-.42-.23-.8.49-.79,1.17-1.28,2.1-1.43.95-.12,1.75.19,2.42.86.12.12.34.22.27.45-.06.19-.27.15-.42.2-1.34.44-2.75.54-4.14.72Z"/>
  <path d="m331.67,23.25c-.39.25-.65.32-1.04.38.29-.32.57-.36,1.04-.38Z"/>
  <path d="m107.55,22.18c.14.43.23.71.33.99.06.18.02.33-.14.42-.43.25-.39.6-.19.95.17.29.14.57.04,1.04-.37-.59-.47-1.14-.47-1.63,0-.53.25-1.06.43-1.76Z"/>
  <path d="m322.33,18.41c-.18-.02-.21-.14-.12-.26.26-.34.5-.69.8-1,.16-.16.3,0,.34.19.04.19-.82,1.08-1.03,1.07Z"/>
  <path d="m335.49,21.13c0,.15-.03.32-.21.33-.21,0-.26-.19-.24-.35.01-.13.07-.3.26-.3.21,0,.18.18.19.32Z"/>
  <path d="m324.61,21.23c-.17-.05-.22-.17-.22-.33,0-.11.04-.23.17-.19.16.05.3.16.28.35-.01.1-.11.17-.22.17Z"/>
  <path d="m246.14,24.21c-.22-.1-.48-.21-.25-.39.42-.34.27-.67.13-1.04-.02-.06-.02-.12-.02-.18,0-.2-.06-.47.21-.52.27-.05.35.23.37.41.06.43,0,.89.64.92.12,0,.13.19.03.23-.41.13-.82.24-1.11.57Z"/>
  <path class="cls-2" d="m247.25,24.77c.2,0,.34,0,.49,0,.41-.02.84-.04.92.48.08.48.03.97-.47,1.24-.95.51-1.94.51-2.93.16-.35-.12-.59-.41-.66-.77-.1-.45-.09-.86.56-.92.72-.07,1.42-.23,2.1-.19Z"/>
</svg>