<?xml version="1.0" encoding="UTF-8"?>
<svg xmlns="http://www.w3.org/2000/svg" viewBox="0 0 54.25 53.73">
  <defs>
    <style>
      .cls-1 {
        fill: #8ebb5b;
      }

      .cls-2 {
        fill: #3e837d;
      }

      .cls-3 {
        fill: #476fb6;
      }
    </style>
  </defs>
  <g id="Layer_2" data-name="Layer 2">
    <polygon class="cls-3" points="14.09 3.22 20.28 .86 32.97 1.15 48.95 14.62 52.81 21.81 52.07 34.06 47.7 43.44 43.51 47.44 31.02 52.18 24.65 52.59 18.57 51.99 16.32 51.04 7.4 44.51 1.64 34.96 .94 25.48 2.73 15.21 8.94 8.14 14.09 3.22"/>
  </g>
  <g id="Layer_1" data-name="Layer 1">
    <path d="m54.12,26.6c.1-2.6-.1-5-1.1-7.3-.5-1.15-.71-2.44-1.32-3.52-1.05-1.85-2.33-3.57-3.47-5.37-1.55-2.46-3.67-4.23-6.13-5.77-3-1.87-5.99-3.65-9.55-4.17-1.17-.17-2.35-.34-3.52-.39-2.72-.11-5.44-.25-8.11.5-1.19.34-2.36.7-3.54,1.06-.29.09-.58.21-.84.37-2.79,1.84-5.57,3.69-8.35,5.55-.33.22-.69.44-.95.74-2.22,2.62-4.58,5.13-5.58,8.55-.16.54-.44,1.05-.65,1.58-.09.24-.19.49-.21.75-.26,2.77-.79,5.53-.46,8.34.25,2.16.52,4.32.7,6.49.25,3.05,1.84,5.5,3.57,7.84,1.34,1.8,2.94,3.4,4.46,5.06.39.43.86.83,1.37,1.11,2.43,1.33,4.88,2.63,7.33,3.92.27.14.58.22.88.27,2.64.43,5.28.85,7.93,1.27.65.1,1.36.35,1.95.19,3.63-1,7.23-2.11,10.84-3.15,1.16-.33,2.18-.88,3.09-1.66.57-.49,1.21-.92,1.79-1.4.61-.51,1.31-.98,1.77-1.61,2.17-3,4.09-6.16,5.66-9.51.47-1,.93-2.03,1.22-3.09.6-2.22,1.69-4.37,1.2-6.64Zm-.85-5.24c.36.52.35,1.04,0,1.57-.49.73-.97,1.48-1.45,2.22-.15.34-.3.67-.45,1.01-.07,0-.14,0-.2,0-.19-1.09-.78-2.08-.59-3.25-.35-1.14-.85-2.27-.98-3.44-.06-.52.64-1.13,1.01-1.68.02-.03.28.11.42.17-.28-.69-.27-.72.57-1.59.57,1.72,1.12,3.36,1.67,4.99Zm-7.01,13.66c-1.13.23-2.08.42-3.18.64.12-.15.23-.3.35-.44-.07-.04-.12-.09-.17-.15-.59.77-1.38.88-2.35.95.26-1.94.51-3.82.77-5.76.17.07.31.09.41.17.78.65,1.56,1.31,2.34,1.97.07-.08.16-.15.25-.2-.16-.11-.36-.27-.62-.48-.63-.5-1.24-1.03-1.88-1.5-.45-.33-.4-.73-.33-1.2.07-.48.38-.52.75-.58,1.61-.26,3.21-.53,4.82-.79.2-.03.41-.02.74-.04-.04.06-.07.13-.11.19.14-.08.3-.13.45-.13-.03-.06-.06-.12-.1-.18.88-.14,1.59-.26,2.38-.39v4.39c.06.27.08.53.02.78-.01.05-.03.09-.05.14.18.41.08.96.04,1.44-.01.14-.27.33-.45.37-1.16.25-2.32.47-3.48.7-.09.02-.2.03-.29,0-.03,0-.07.02-.1.03-.09.02-.17.02-.25.02.01.02.02.04.03.06Zm-10.61,12.81c-.26.67-.36.69-1.63.33.13-.03.25-.05.36-.07-.06-.03-.11-.06-.16-.09,0,0-.01,0-.02,0,0,0-.01,0-.02,0-.12.07-.25.11-.4.12l-.21-.02c-.06-.01-.12-.04-.17-.07-.06,0-.13.02-.19.03-.32.04-.67-.02-.99-.12-.34.05-.68,0-.98-.17-2.05-.34-3.99-.66-6.07-1.01-.27-.01-.54-.08-.82-.26,0,.02,0,.05,0,.07-.91-.13-1.79-.25-2.76-.39.13-.34.19-.6.32-.81.06-.1.13-.18.2-.25.05-.08.1-.15.14-.23.02-.05.04-.09.06-.14,0,0,0-.01,0-.02,0-.02.02-.05.02-.07.02-.06.03-.11.04-.17,0-.02,0-.05.01-.07,0,0,0,0,0,0,0-.02,0-.07,0-.1,0-.03,0-.05,0-.08,0-.06,0-.12-.01-.19-.01-.13.06-.25.16-.32,0-.08,0-.16.03-.23.24-.74.51-1.47.84-2.17.09-.19.45-.39.67-.37.62.04,1.23.2,1.94.33-.06.07-.11.13-.16.19.17-.02.34-.04.5-.04.24-.11.49-.09.71.03.28.03.55.1.82.18-.02-.02-.03-.04-.05-.06.45.07.89.14,1.34.22,1.28.22,2.57.42,3.85.66.24.05.47.17.7.29.31.01.59.06.87.14.58.05,1.16.1,1.74.16.1.01.24.11.27.21.06.18.13.36.2.54.63.6.67,1.64,0,2.3-.19.38-.41.67-.66.91,0,.33-.24.68-.57.75-.06.01-.12.03-.18.05,0,0-.02.01-.03.02,0,0-.02.02-.04.03-.01.01-.03.03-.04.05.11-.02.21-.04.32-.06Zm-15.18-.62c0,.33-.06.66-.16.97-.09.29-.19.57-.24.86-.02.12-.12.22-.23.26-.01.02-.03.04-.04.06,0,.09-.05.18-.11.25-.07.07-.18.12-.28.12-.05,0-.11,0-.15-.03-.05-.02-.09-.04-.13-.08-.2-.15-.41-.29-.64-.39-.03-.01-.06-.04-.09-.07,0,.01,0,.03-.01.04-.06-.03-.12-.06-.18-.09-.49-.03-.97-.24-1.29-.65,0,0,0,0,0,0,.22.34-.38-.06-.54-.13-.27-.12-.43-.25-.68-.43-.04-.03-.07-.05-.11-.07-.18-.09-.35-.19-.52-.29-.3-.14-.61-.24-.95-.36-.53-.18-.85-.56-1-.98,0,.09-.02.17-.03.26-1.43-.72-2.82-1.41-4.19-2.12-.13-.07-.24-.3-.25-.47,0-.11-.02-.22-.03-.33-.3-.4-.43-.97-.31-1.41.05-.18.11-.33.2-.47,0-.12-.01-.24-.02-.36.08.05.15.09.21.13.06-.06.13-.12.21-.17-.15-.12-.29-.26-.33-.42-.05-.17.11-.39.18-.62.28.12.41.17.54.23.37.19.75.37,1.12.56.38.08.69.26.98.49.74.37,1.48.73,2.22,1.09.32.16.48.31.47.51,0,0,0,0,0,0,.16.02.31.08.44.16.19.07.36.18.5.31.02.01.04.03.07.04-.06-.08-.11-.15-.17-.23.02-.03.03-.06.05-.1.66.32,1.28.73,1.97.94.15.05.27.11.38.18.08.03.16.07.24.11.22.11.43.24.64.38.73.36,1.37.67,1.99,1.02.03.01.02.09,0,.18.15-.12.38-.08.51.03.08.07.11.16.12.26.07.02.15.04.22.06-.15.15-.28.38-.46.44,0,0-.01,0-.02,0,0,0,0,0,0,0-.03.05-.06.11-.1.17.01.04.02.08.02.13Zm-16.16-11.15s.09-.09.14-.13c.69.73,1.43,1.41,2.04,2.19.59.74,1.61,1.22,1.68,2.51-.28-.2-.43-.3-.57-.4.77,1.04.46,2.27.66,3.55-.22-.16-.36-.22-.45-.32-.84-.93-1.66-1.88-2.51-2.79-.51-.55-.91-1.1-.9-1.92.01-.7-.1-1.4-.17-2.21.24.14.41.24.58.34l-.5-.82Zm16.09,9.58c-.4-.14-.66-.33-.75-.62-.21.01-.42,0-.65-.06-.41-.12-.82-.35-1.19-.56-.18-.11-.36-.23-.53-.36,0,.01,0,.03.01.04-.66-.33-1.24-.61-1.96-.97.11-.03.22-.07.32-.11-.11-.03-.22-.06-.33-.09-.08-.02-.15-.05-.23-.08-.31,0-.59-.08-.86-.25-.83-.36-2.19-.9-3.31-1.65-.6-.3-1.19-.59-1.79-.89.03-.14.03-.17.04-.18.09-.12.17-.23.25-.33-.05-.07-.09-.14-.13-.21-.17.18-.35.36-.52.53l-.27-.17c.26-1.25.52-2.49.83-3.96.16.33.3.62.44.9.06-.04.12-.08.18-.11-.13-.26-.24-.52-.32-.8-.13-.44-.02-.94-.02-1.58,1.98.96,3.8,1.84,5.62,2.72,0,.08,0,.16,0,.24.27.1.51.24.76.37.36.06.65.1.91.22,1.04.47,2.06.98,3.09,1.46.42.03.84.22,1.17.57,0,0,.01-.02.02-.02.71.37,1.34.69,1.95,1.04.07.04.04.31,0,.45-.29.8-.61,1.59-.9,2.39-.06.17-.14.27-.24.31-.05.13-.11.26-.19.38.1.18.07.42-.09.72-.32.62-.76.85-1.28.67Zm-11.36-10.78c-.2-.55-.4-1.09-.59-1.62.9.45,1.07.91.59,1.62Zm1.46-2.89c.61-1.55,1.15-2.96,1.74-4.47.73.35,1.41.65,2.06,1,.09.05.16.17.2.31.12.02.25.05.37.09,0-.06,0-.12,0-.18,2.75,1.29,5.31,2.48,7.87,3.68.26.04.53.13.77.27.15.08.28.18.42.28.12.06.24.11.36.17.21.04.41.14.59.28.24.11.48.22.71.34-.03.07-.07.15-.1.22l-.18-.08c.08.12.14.25.18.37.21.6-.05,1.23-.5,1.64-.18.52-.36,1.04-.55,1.56.1.12.12.31.04.45-.17.28-.34.56-.49.86-.04.07-.07.14-.11.22-.02.04-.03.08-.05.12,0,0,0,0,0,.01,0,.01-.01.03-.02.04-.05.14-.1.29-.13.44-.02.11-.09.19-.18.24,0,.1,0,.19-.03.27-.03.1-.38.21-.53.15-.42-.14-.82-.36-1.22-.56-.36-.18-.53-.29-.55-.48-.09-.05-.18-.11-.26-.17-.02.07-.03.13-.05.21-.95-.45-1.83-.87-2.7-1.29,0,0,0-.01,0-.02-.75-.27-1.49-.56-2.13-1.04-.02,0-.04-.01-.06-.02-.15-.05-.33-.21-.43-.37-.11-.04-.22-.08-.33-.13,0,.05.01.11.02.16-1.88-.91-3.64-1.76-5.45-2.63.09-.28.16-.46.2-.64.1-.42.27-.73.56-.93.01-.13.03-.26.07-.39-.04,0-.08.01-.12.02Zm.63-6.23c-.29-.07-.56-.21-.79-.43-1.25-1.18-2.5-2.35-3.72-3.55-.04,0-.09,0-.12,0-.05-.01-.1-.03-.14-.07-.04-.03-.08-.06-.1-.11-.23-.29-.46-.58-.67-.89-.01-.02-.02-.03-.03-.05-.09-.01-.2-.07-.33-.18-.94-.8-.95-.79-.21-1.79.31-.42.61-.83.92-1.24.17-.39.48-.7.86-.91.18-.5.45-.96.82-1.38.05-.06.11-.11.18-.16.04-.05.09-.09.14-.13.15-.15.29-.3.46-.43.07-.06.22-.07.3-.05.07.02.13.05.18.1.02.02.04.04.05.06.02.02.04.04.06.07.01.01.02.03.03.04.02.02.04.05.06.07.01.01.03.03.04.04.13.04.25.1.34.18,1.62,1.41,3.23,2.85,4.84,4.27.05.04.08.11.22.33-.17.02-.33.04-.5.05.02.03.04.07.05.1.12-.1.31-.13.45-.04.06.03.11.07.17.11.26.01.42.1.48.3.08.05.16.1.24.15.22.13.27.43.09.62-.04.04-.07.08-.11.12,0,0,0,.01-.01.02,0,.02-.05.07-.06.08-.09.13-.17.26-.24.39-.08.14-.15.28-.21.42-.01.03-.04.07-.04.1.02-.05.02-.06,0-.02,0,.02-.01.03-.02.05-.02.06-.04.12-.05.18-.02.1-.08.17-.16.22-.02.06-.04.12-.07.18-.34.78-.79,1.51-1.2,2.26-.16.29-.38.52-.64.69,0,.12-.02.25-.07.36.04,0,.09-.02.13-.02-.26.49-.42.8-.63,1.19-.32-.29-.57-.52-.99-.9.05,0,.09-.02.13-.02-.07-.1-.12-.22-.14-.35Zm39.62.58c.03.14-.14.43-.26.46-.59.14-1.19.22-1.94.35.02-.06.03-.11.05-.17-.23.14-.49.23-.76.25-.05,0-.1,0-.16,0,0,0,0,0,0,0-.37.09-.63.16-.89.2-1.36.23-2.72.42-4.07.68-.58.11-.82-.02-.82-.65,0-1.4-.05-2.8-.06-4.19,0-.15.14-.29.22-.44-.09-.66-.21-1.33-.24-1.99,0-.13.35-.37.56-.4,1.36-.2,2.72-.35,4.08-.51.14-.02.44.11.8.3.07-.07.14-.13.23-.17-.05-.04-.1-.07-.15-.11,1.51-.67,1.88-.5,2.13,1.29.34.68.46,1.5.72,2.27.05.16.05.32,0,.45.2.79.39,1.58.56,2.38Zm-4.99-7.5c-.15-.16-.41-.22-.62-.33.37.33.73.65,1.2,1.07-.68.1-1.29.21-1.89.28-.73.09-1.45.19-2.18.23-.19,0-.52-.18-.55-.33-.23-1.01-.42-2.04-.58-3.06-.03-.2.08-.43.14-.71.39.17.68.3.97.43-.92-.56-.86-1.34-.64-2.26.29-1.23.25-1.15,1.48-1.32,1.86-.26,2.93.68,3.72,2.16.62,1.15,1.21,2.31,1.81,3.47.12.22.21.46.34.75-1.17.21-2.25.59-3.19-.39Zm-4.77,9.28c-1.34-.11-2.46-.65-3.37-1.61-.13-.14-.27-.43-.21-.57.7-1.58,1.43-3.14,2.2-4.83.62.47,1.16.85,1.65,1.28.16.14.29.4.29.61.04,1.54.04,3.08.06,4.62,0,.45-.2.53-.63.49Zm.35,1.37c-.47-.37-.94-.74-1.46-1.14,1.82.04,1.96.38,1.46,1.14Zm-28.04-3.95c.56-1.02,1.02-1.88,1.49-2.74.03.01.07.02.1.03,0,.07-.01.14-.02.21.08-.16.18-.31.29-.45.09-.51.24-1,.55-1.47.25-.38.44-.46.85-.28,2.72,1.23,5.45,2.44,8.18,3.64.41.18.54.38.37.81-.18.44-.27.91-.47,1.34-.09.19-.32.32-.42.42-1-.18-1.96-.35-2.89-.52,0,.09,0,.17,0,.26.77.14,1.54.27,2.31.4.61.1.82.27.59.91-.45,1.29-.84,2.61-1.29,4.02-1.03-.47-1.93-.89-2.83-1.3-1.41-.65-2.81-1.32-4.22-1.96-.51-.09-.96-.29-1.3-.65,0,0,0,0,0,.01-.74-.34-1.31-.59-1.87-.88-.1-.05-.21-.26-.18-.33.2-.4.36-.87.69-1.12.06-.04.13-.08.21-.11.04-.11.09-.21.15-.3-.09,0-.18.02-.28.04Zm3.49-5.71c0-.05.01-.11.04-.17-.05,0-.1-.02-.15-.03.35-.5.61-.89.88-1.26.77-1.08,1.53-2.16,2.33-3.22.05-.06.11-.12.19-.17-.02-.15.05-.33.19-.4.51-.24,1.03-.06,1.52.17.23.11.44.23.67.33.06.03.11.05.17.08,0,0,0,0,0,0,.02,0,.04.01.05.02.08.02.16.04.25.06.04,0,.06,0,.02,0,0,0,.01,0,.02,0,.05,0,.09.02.13.04,1.6.47,3.14,1.2,4.71,1.94-.46,1.33-.87,2.59-1.34,3.82-.06.16-.49.31-.72.27-.79-.14-1.58-.28-2.37-.43-.06.08-.13.16-.21.24.94.18,1.89.35,2.83.53.06.01.12.07.26.16-.24.72-.46,1.46-.75,2.18-.05.13-.41.27-.54.21-2.88-1.27-5.74-2.57-8.61-3.87-.02,0-.03-.04-.15-.21.24-.08.43-.21.58-.18.01,0,.02,0,.04,0-.01-.04-.02-.08-.03-.13Zm22.99-4.61c.91.4,1.19.94.91,1.9-.21.73-.47,1.44-.69,2.17-.12.39-.33.52-.73.47-1.8-.26-3.55-.68-5.24-1.3-.24-.02-.49-.05-.73-.08.1.04.19.08.29.13-.02.05-.04.1-.06.15-.67-.13-1.34-.24-1.99-.41-.15-.04-.23-.31-.35-.47,0,0,.01,0,.02,0-.17-.33-.05-.79.25-1.03.37-1.24.75-2.49,1.08-3.74.15-.59.43-.62.93-.41.34.15.68.29,1.02.43.05-.06.1-.11.16-.15-.1-.04-.2-.09-.3-.13-.5-.22-1-.45-1.5-.67.02-.08.03-.16.05-.25.2-.02.41-.08.6-.05,2.02.39,4.03.8,6.05,1.17.44.08.67.26.72.71.06.49.17.97.28,1.56-.39-.13-.76-.25-1.11-.38,0,.07-.02.13-.05.19.13.06.27.13.41.19Zm.26,4.65c.28-.86.52-1.63.77-2.4.05,0,.1,0,.15,0,.15.85.31,1.7.49,2.67-.48-.09-.88-.16-1.41-.26Zm1.35,2.26c-.51-.38-.96-.68-1.36-1.04-.13-.12-.22-.4-.18-.58.03-.11.33-.24.5-.23,1.11.05,1.26.32,1.03,1.84Zm-.5-6.7c-.12-.68-.29-1.35-.31-2.03,0-.15.53-.32.82-.48.07.06.13.13.2.19-.12.77-.25,1.53-.37,2.3-.11,0-.23.02-.34.02Zm-14.84,9.27c-.15-.08-.32-.39-.28-.54.2-.77.47-1.53.75-2.39.85.38,1.63.7,2.39,1.07.12.06.25.31.22.44-.21.8-.47,1.58-.74,2.48-.87-.38-1.61-.69-2.33-1.05Zm2.09,1.71c-.19.65-.41,1.29-.65,2.02-.87-.4-1.66-.72-2.4-1.12-.14-.07-.21-.49-.14-.69.21-.56.51-1.09.78-1.64.78.35,1.56.69,2.32,1.05.07.04.12.26.08.38Zm.71-3.92c-.62-.23-1.23-.48-1.82-.79-.16-.08-.32-.42-.27-.58.35-1.13.73-2.25,1.14-3.36.05-.15.39-.33.52-.28.65.22,1.27.51,1.89.8.12.06.19.22.27.33-.41,1.3-.8,2.55-1.22,3.78-.03.09-.37.16-.52.1Zm.97-.18c.29-1.1.64-2.18,1.01-3.26.07-.22.29-.39.35-.45,2.87.34,5.44.97,7.81,2.23.14.07.25.45.19.6-.61,1.41-1.25,2.82-1.92,4.2-.08.16-.49.32-.65.25-2.18-.92-4.35-1.87-6.51-2.86-.17-.08-.33-.51-.27-.72Zm9.28-1.74c-.65-.25-1.28-.53-1.92-.81,0-.03.02-.06.03-.09.68.14,1.37.26,2.05.42.12.03.21.23.31.36-.16.04-.34.17-.46.12Zm-8.65-9.88c.69.3,1.38.6,2.07.9-.05.11-.09.22-.14.33-.69-.29-1.39-.57-2.08-.86.05-.12.1-.25.15-.37Zm-.49-.56c-1.34-.51-2.66-1.07-4.14-1.67.96-.73,1.78-1.39,2.64-2,.17-.12.5-.07.74-.04.58.09,1.16.22,1.74.32.49.09.62.33.42.8-.31.74-.56,1.51-.88,2.24-.07.17-.41.39-.53.34Zm3.01,1.23c.29-1.13.55-2.18.86-3.21.03-.1.44-.2.62-.13.78.28,1.54.62,2.31.92.24.09.5.13.75.2.03.03.06.08.1.09,1.77.43,1.75,2.08,2.46,3.51-2.45-.48-4.71-.91-7.08-1.37Zm.49-3.91c-.42-.5-1.46-.08-1.37-1.09.06-.66.49-.71,1.06-.43.81.39.86.46.31,1.52Zm-1.17-.29c.27.02.57.14.78.31.18.15.4.45.36.64-.2,1.02-.48,2.02-.77,3.16-.68-.28-1.26-.49-1.8-.77-.13-.07-.24-.4-.19-.56.29-.85.61-1.69.98-2.51.07-.16.42-.29.64-.27Zm-1.51-.62c-.51-.09-1.02-.2-1.52-.32-.06-.01-.11-.08-.16-.12.84-1.25,1.65-1.38,2.98-.48-.22,1.03-.32,1.1-1.3.92Zm-2.53-.4s-.09.07-.13.11c-.02.02-.04.03-.05.04-.72.59-1.44,1.19-2.19,1.76-.14.11-.49.14-.63.04-1.31-.93-2.59-1.9-4.02-2.95.33-.12.65-.14.94-.11.13-.38.5-.7.94-.56.03,0,.06.02.09.03,1.34-.39,2.69-.77,4.02-1.18.47-.15.86-.11,1.25.2.5.39,1.03.74,1.7,1.21-.7.52-1.32.97-1.93,1.42Zm-1.68,2.96c.98.4,1.97.8,2.95,1.22.21.09.41.23.61.35-.03.1-.06.19-.09.29-1.8-.27-3.58-.65-5.38-1.02.57-1.16.84-1.27,1.91-.83Zm-1.91,1.07c1.65.31,3.29.63,4.94.96.09.02.16.08.32.16-.16.43-.31.86-.46,1.29.09,0,.17,0,.25,0,.15-.41.3-.83.46-1.25q2.3.62,1.71,2.72c-.28.99-.57,1.98-.88,3.08-.32-.14-.63-.26-.93-.39-.09.05-.19.09-.29.12.27.12.54.24.8.38.16.08.19.43.28.65-.07.05-.14.1-.21.15-.81-.34-1.63-.69-2.52-1.06.01-.03.03-.06.04-.09-.06-.03-.12-.06-.17-.09-.03-.02-.06-.04-.09-.06-.02.04-.05.07-.07.11-.83-.35-1.65-.7-2.46-1.04,0-.04.02-.07.03-.11.34.06.67.12,1.01.18-.06-.08-.11-.16-.15-.25-1.84-.34-3.66-.78-5.39-1.86,1.11-1.18,2.18-2.33,3.28-3.47.11-.11.35-.16.52-.13Zm-1.33,21.7c.41-1.45.86-2.89,1.33-4.44.86.39,1.63.73,2.38,1.11.13.07.25.36.21.5-.44,1.44-.92,2.87-1.42,4.43-.83-.39-1.55-.69-2.23-1.05-.15-.08-.32-.4-.28-.56Zm4.4-3.05c2.05.93,4.03,1.82,6.14,2.78-.71.99-1.35,1.9-2.02,2.8-.07.09-.26.14-.38.12-1.72-.29-3.44-.6-5.3-.93.54-1.64,1.04-3.16,1.57-4.77Zm6.34,2.91c1.56,1.33,3.08,2.61,4.59,3.9-.02.05-.04.09-.06.14-2.13-.37-4.25-.75-6.55-1.15.7-1,1.33-1.9,2.03-2.89Zm-.54-.58c-1.76-.77-3.5-1.57-5.25-2.35-.35-.16-.42-.34-.31-.72.55-1.92.54-1.92,2.49-1.57,1.86.34,3.72.68,5.75,1.06-.71,1.23-1.35,2.35-2.03,3.45-.08.13-.47.2-.65.13Zm2.36-3.97c-2.27-.43-4.55-.84-6.83-1.27-.09-.02-.17-.07-.35-.13.26-.86.52-1.7.81-2.68,2.48,1.09,4.89,2.14,7.32,3.21-.19.53-.28,1-.96.87Zm1.26-.71c.47.38.83.67,1.19.96-.02.05-.04.11-.06.16-.5-.09-1-.19-1.6-.3.19-.32.31-.54.48-.83Zm6.14-14.66c.17.19.34.38.56.64-.62.06-1.22.11-1.9.18.03-.51.06-.95.09-1.38-.07.22-.18.44-.2.67-.04.59-.38.78-.91.85-.56.07-.68-.28-.83-.67-.2-.53-.44-1.04-.61-1.58-.04-.14.11-.34.18-.52-1.02-.7-1.04-1.89-1.53-2.88,2.43-.45,3.34-.35,3.84,2.48.05-.3.08-.52.15-.94,1.1,1.25,2.1,2.39,3.12,3.54-.86.5-1.35-.22-1.97-.4Zm-6.02-6.05c-.52-.7-1.02-1.41-1.53-2.11.04-.03.07-.06.11-.09,1.38.95,2.76,1.89,4.17,2.86-1.25.54-1.99.36-2.74-.65Zm1.37,3.63c-.39-.09-.77-.18-1.15-.28,0,0,0,0,0,0-.97-.42-1.93-.86-2.9-1.27-.4-.17-.7-.31-.53-.87.17-.56.49-.62.97-.5.3.07.6.18.9.18,1.85-.04,2.38,1.21,2.71,2.73Zm-4.65-3.53c-.57-.29-1.25-.18-1.47-.9-.6.46-.95-.15-1.46-.43.63-.27,1.25-.53,1.88-.8.51-.27,1.02-.53,1.69-.88-.23,1.09-.43,2-.64,3.01Zm-3.18-1.56c-.15.07-.4.1-.53.02-.56-.34-1.08-.72-1.57-1.26l4.8-.22c.01.06.03.12.04.18-.91.43-1.82.87-2.74,1.28Zm1.92-1.62c-1.32,0-2.64-.05-3.96.02-.74.04-1.01-.31-1.19-1.09,1.78.28,3.47.56,5.17.83,0,.08-.01.16-.02.25Zm-5.08.14c-1.48.44-2.88.86-4.29,1.27-.61.18-1.24.31-1.85.5-.49.15-.7-.04-.82-.49-.09-.34-.23-.67-.34-1.01-.28-.87-.26-.94.63-1.02,1.84-.17,3.68-.28,5.51-.47.91-.1.85.6,1.15,1.23Zm-6.95,2.75c.19-.02.44-.13.55-.05,1.33.96,2.64,1.95,3.95,2.93-.27.64-.64,1.04-1.11,1.21.03.19-.1.38-.28.44,0,0,0,0-.01,0-.03.07-.04.11-.08.15-1.03,1.11-2.05,2.22-3.18,3.43-.87-.7-1.73-1.38-2.57-2.09-.02-.02-.04-.05-.05-.09-.2-.04-.29-.22-.29-.4-.04.06-.07.12-.11.19-.86-.75-1.68-1.46-2.5-2.18-.15-.1-.3-.19-.56-.36.52-.29.95-.53,1.38-.77,1.41-.78,2.81-1.57,4.22-2.34.18-.09.43-.05.64-.07Zm-5.83,3.95c.73.59,1.49,1.17,2.18,1.81.1.09.19.27.23.44.04.02.08.04.12.06.06.04.12.08.19.12.02-.05.04-.1.06-.16.86.7,1.63,1.31,2.38,1.94.09.07.17.3.13.34-.06.08-.16.16-.25.22-.02.12-.06.23-.13.33.01,0,.03,0,.04,0-.29.42-.51.75-.74,1.07-.82,1.16-1.64,2.32-2.49,3.45-.07.09-.18.14-.31.19.02.09,0,.2-.04.27-.05.1-.13.14-.23.19-.09.04-.21.03-.3,0-.11,0-.22-.02-.31-.1-.07-.06-.1-.14-.11-.23,0,.03-.01.06-.02.09-1.89-1.66-3.65-3.2-5.41-4.75,0-.02.01-.05.02-.07-.22,0-.35-.17-.37-.34-.07-.05-.12-.11-.15-.19-.25-.1-.52-.22-.84-.33,1.33-1.16,2.44-2.14,3.56-3.12.48-.42.96-.84,1.45-1.25.45-.37.9-.36,1.35,0Zm20.22,32.82c.3-.16.6-.33.98-.53.14.29.25.53.44.91-.55-.09-.97-.16-1.39-.23,0-.05-.02-.1-.03-.15Zm1.83.81c.49.08.83.13,1.34.21-.28.49-.48.85-.77,1.37-.21-.59-.36-1.01-.57-1.58Zm1.11-.17c-1.07-.04-1.36-.23-1.52-1-.04-.18.03-.48.17-.6.94-.79,1.9-1.54,2.85-2.3.04.03.08.06.12.09-.37,1.17-.72,2.34-1.12,3.5-.05.15-.34.32-.5.31Zm1.56-4.29c-.93.91-2,1.66-3.05,2.45-.14.1-.5.09-.64-.02-.06.06-.13.12-.2.17.09.08.17.15.26.23-.8.54-1.43.95-2.38.75-1.96-.42-3.95-.69-5.93-1.03-.13-.02-.24-.05-.32-.08-.44.11-.81.03-1.11-.17-.12.03-.25.05-.37.07-.36.05-.7-.08-.97-.31-.35-.06-.71-.12-1.08-.18.06-.28.11-.49.2-.87.1.05.19.09.29.14-.01-.04-.02-.08-.03-.12-.06-.35,0-.66.13-.92.06-.31.2-.72.39-1.29.32-.94.66-1.87,1-2.8.02-.06.09-.11.19-.22.05.02.1.05.15.07.07-.07.15-.14.23-.2-.07-.03-.14-.07-.21-.1-.05-.02-.07-.11-.11-.17.02-.07.04-.13.06-.2.32.06.64.11.97.17.31-.05.63,0,.92.16,1.15.2,2.32.41,3.55.63,0,0-.01.01-.02.02.14,0,.28,0,.4.04,2.12.37,4.02.7,5.93,1.04.35.06.73.06,1.04.22.47.23,1.2.52,1.26.87.08.52-.18,1.27-.57,1.65Zm-.7-3.25c-1.42-1.14-2.78-2.36-4.19-3.52-.35-.29-.46-.51-.19-.93.6-.97,1.13-1.98,1.74-2.94.12-.19.48-.33.73-.33,1.66,0,2.98.79,4.13,1.92.14.14.3.36.28.53-.24,1.88-.5,3.75-.77,5.63-.01.09-.07.17-.2.43-.53-.26-1.1-.43-1.52-.77Zm9.12-24.2c1.05,1.43,2.09,2.86,3.11,4.32.12.17.2.53.1.68-.57.89-1.2,1.74-1.91,2.76-.8-1.54-1.53-2.94-2.25-4.34-.3-.59-.65-1.16-.89-1.77-.1-.24-.03-.62.09-.87.15-.31.43-.56.66-.83.47-.54.64-.55,1.08.06Zm-1.04-.67c-.35.52-.77,1-1.23,1.57-.53-.59-1.01-1.1-1.47-1.63-.97-1.1-1.92-2.21-2.89-3.3-.25-.29-.38-.54-.05-.84.28-.26.54-.4.92-.1,1.53,1.23,3.08,2.43,4.6,3.67.14.11.21.5.13.64Zm-.27-1.18c-1.78-1.61-3.82-2.75-5.25-4.61,1.93,1.27,4.33,2.01,5.25,4.61Zm-6.55-3.3c-1.05-.75-2.13-1.46-3.12-2.34,1.43.63,2.87,1.27,4.33,1.92-.36.73-.71.78-1.21.42Zm1-1.19l-.16.22c-1.28-.56-2.56-1.11-3.84-1.67l.04-.11c1.05.26,2.11.49,3.14.82.32.1.55.48.82.73Zm-1.35-1.25c-1.17-.28-2.24-.54-3.43-.83,1.37-.48,2.42-.11,3.43.83Zm-4.68-2.29l2.15.83c0,.07,0,.14-.01.21-.64,0-1.3.06-1.93-.04-.19-.03-.31-.51-.47-.79l.26-.21Zm2.41,5.25c-1.04-.2-1.87-.33-2.69-.54-.18-.05-.43-.4-.41-.58.07-.77.24-1.52.41-2.5.93,1.26,1.76,2.36,2.69,3.62Zm-5.07-5.86c.59.12,1.18.23,1.76.37.62.15.42.59.36,1.12-.78-.48-1.48-.91-2.17-1.34.02-.05.04-.1.06-.15Zm.56,1.08c-1.07-.37-2.14-.74-3.3-1.14,1.46-.46,2.37.38,3.3,1.14Zm-4.1-1.03c1.13.31,2.24.71,3.35,1.08-.01.05-.02.09-.03.14-1.41-.23-2.82-.46-4.22-.69l-.05-.27c.32-.09.68-.33.95-.26Zm-4.94-.38c1.3.16,2.61.13,3.92.19.02.07.04.13.05.2-.35.15-.68.4-1.04.43-2.04.2-4.08.35-6.34.54,1.12-.86,2.06-1.52,3.4-1.35Zm-2.75.43c-1.93,1.54-4.33,1.9-6.53,2.78,1.85-1.71,4.21-2.2,6.53-2.78Zm-7.45,3.5c1.84-.67,3.7-1.32,5.56-1.94.15-.05.5.13.57.28.25.58.46,1.19.61,1.81.04.18-.09.53-.24.62-1.89,1.08-3.8,2.12-5.71,3.17-.06.03-.13.02-.33.06-.28-1.19-.56-2.34-.79-3.49-.03-.14.17-.44.33-.5Zm-5.65,3.7c1.55-1.13,3.14-2.2,4.85-3.38.15.47.28.83.37,1.21.19.76.38,1.52.53,2.29.04.22.01.56-.13.68-1.62,1.45-3.27,2.88-4.92,4.3-.05.04-.13.05-.3.1-.11-.7-.2-1.36-.31-2.03-.13-.77-.31-1.54-.38-2.31-.03-.28.09-.71.29-.86Zm-4.22,4.82c1.12-1.4,2.29-2.77,3.57-4.31.2,1.26.37,2.33.53,3.4.01.07-.03.15,0,.21.5,1.09.02,1.91-.65,2.76-1.03,1.29-1.98,2.65-3.1,4.17-.11-1.01-.19-1.81-.28-2.61-.1-.92-.23-1.83-.29-2.75-.02-.28.04-.65.21-.86Zm-2.22,5.62c-.05-.15-.17-.32-.13-.43.54-1.33,1.11-2.66,1.68-4.01.43.85.48,2.18.2,2.94.09.11.15.24.18.38.08.06.13.16.16.35.18,1.12.13,2.17-.4,3.22-.61,1.21-1.07,2.5-1.7,3.74-.09-1-.18-1.99-.26-2.99-.06-.73-.08-1.46-.17-2.19-.06-.45.07-.78.44-1.02Zm-.84,10.8c-.03-.51-.1-1.02-.1-1.53.01-2.24-.26-4.5.22-6.73.01-.07.03-.13.09-.19-.2,1.2.57,2.45-.1,3.55.15.2.33.34.35.5.05.42.06.85.01,1.27-.11,1.05-.26,2.1-.47,3.14Zm.55.9l.14,1.73c-.08,0-.16.01-.24.02-.4-.54-.11-1.15.1-1.75Zm-.21,2.36c.75.69.34,1.64.47,2.41-.16-.8-.31-1.6-.47-2.41Zm.65-6.43c.74.9,1.41,1.71,2.07,2.52.16.08.37.12.49.25.46.46.91.93,1.36,1.39,0-.04,0-.07.02-.1,0-.01-.02-.03-.02-.04-.11-.2-.21-.43-.32-.66-.34-.32-.69-.63-1.03-.95.05-.08.09-.15.14-.21-.08-.08-.15-.17-.23-.26-.23,0-.45-.12-.68-.38-.45-.54-1.02-.99-1.47-1.54-.17-.2-.24-.6-.16-.85.17-.61.41-1.21.72-1.77.08-.15.19-.28.31-.41,0,0,0,0,0-.01.02-.21.09-.42.19-.6-.04.02-.08.04-.12.07.39-.92.73-1.73,1.07-2.55.58.35.86.55.9.79.14.16.27.33.38.5.21-.02.34.06.43.27.12.1.22.22.31.34,0-.01,0-.02,0-.03.22.13.29.15.34.2,1.12,1.25,2.23,2.51,3.35,3.76.09.02.17.04.25.07.07-.05.13-.09.2-.14-.06.04-.12.1-.19.14.18.07.34.17.47.3.82.12,1.4,1.11,1.09,1.91-.43,1.13-.87,2.25-1.31,3.38-.02.06-.07.12-.12.18.05.11.06.25-.01.36-.08.13-.16.23-.26.33-.15.46-.28.83-.47,1.4-.16-.19-.3-.34-.42-.48-.03.02-.06.03-.09.04-.09.03-.23.02-.31-.03-.16-.12-.33-.24-.49-.36.03.02.05.04.08.06-.2-.15-.41-.3-.64-.42-.04.1-.12.21-.24.32-.3.26-.54.59-.8.88.42-.32.84-.64,1.31-.99.39.7.77,1.39,1.15,2.07,0,0,0,0,0,0-.06.53-.07,1.08-.17,1.6-.18.94-.4,1.88-.64,2.97-1.18-1.26-2.26-2.41-3.32-3.58-.09-.11.03-.41.05-.62-.35.19-.56.05-.85-.2-.91-.8-1.24-1.93-1.78-2.94-.12-.22-.27-.43-.4-.64,0,0,0,0,0,0-.28-.57-.14-1.04.32-1.44-.19.07-.39.14-.58.2-.41-.93-.38-2.35.15-4.09Zm.11,5.34c.24.63.49,1.26.72,1.86-.89-.64-1.03-1-.72-1.86Zm-.01,1.89c2.32,1.4,2.26,3.72,2.34,5.96-2.21-1.41-2.66-3.55-2.34-5.96Zm1.2,5.4c1.9,2.51,4.59,4.4,5.83,7.43-2.09-2.37-4.54-4.44-5.83-7.43Zm15.95,12.1c-.16.28-.32.55-.48.83-.09-.02-.17-.04-.26-.06,0-.07.02-.13.02-.2-.09.05-.18.08-.28.09-.1.03-.21.02-.32,0-.1-.02-.19-.07-.27-.14-.09-.05-.16-.13-.21-.22,0-.02-.02-.04-.03-.06-1.48-.77-2.92-1.53-4.36-2.28-.48-.25-.95-.5-1.43-.74-1.33-.32-1.98-1.26-2.27-2.52-.09-.19-.18-.37-.26-.56.03-.04.05-.08.08-.12,1.86.99,3.72,1.98,5.58,2.97,1.18.57,2.36,1.13,3.53,1.71.05.02.08.08.11.14.02,0,.04,0,.06,0,.22,0,.43.04.63.14.09.05.18.11.26.18.07.06.12.12.18.19.05.05.08.11.1.17,0,.03.01.07.02.1,0,.11-.04.21-.11.28-.07.07-.18.12-.28.12,0,0,0,0-.01,0Zm9.46,2.42c-.19.07-.43.07-.63.04-2.79-.44-5.57-.89-8.35-1.35-.16-.03-.3-.1-.45-.15.25-1.22.58-1.47,1.71-1.29,3.3.52,6.59,1.05,9.89,1.57.11.02.22.05.33.07,0,.05.01.1.02.15-.84.32-1.67.65-2.52.95Zm1.68-1.73s-.04-.13-.06-.25c-.03,0-.06,0-.09-.01-.16.06-.32.09-.49.1-.01,0-.03,0-.04,0-.13.03-.25.05-.37.02-.05-.01-.11-.03-.16-.04-.82-.07-1.6-.3-2.42-.42-.22-.03-.41-.12-.57-.25-.15,0-.3-.01-.45-.02.41.15.83.33,1.25.43-1.1-.18-2.2-.35-3.29-.53,0-.06.01-.13.02-.19.11-.02.22-.04.32-.04-.07,0-.13,0-.2,0-.18,0-.34-.02-.48-.07-.18.08-.39.12-.63.12-.11,0-.21-.01-.31-.03-.51-.02-1-.17-1.33-.46-.16.1-.35.11-.5-.03-.15-.13-.17-.43,0-.56.06-.05.11-.1.16-.15-.02-.13-.03-.26-.05-.38,0-.03.09-.1.21-.16-.02-.37.08-.75.3-1.04-.04,0-.07-.02-.11-.02.11-.09.2-.18.27-.25-.09-.17-.08-.39.14-.51.7-.38,1.5-.09,2.22.08.12.03.25.05.37.08.04,0,.08,0,.11,0,.19.02.34.04.47.09.62.09,1.25.13,1.88.21.08.01.15.06.2.12,1.64.27,3.28.54,4.91.8,0,.02,0,.04,0,.05.33.02.61.14.82.31.19-.07.41-.1.64-.08.68.06,1.34.2,2.26.34-1.03.97-1.83,1.93-2.83,2.57-.54.35-1.42.16-2.15.19Zm1.44,1.05l-.04-.13c1.35-.36,2.7-.72,4.04-1.08.01.04.02.09.04.13-1.35.36-2.7.72-4.04,1.08Zm7.23-2.38c-2.02.35-3.99,1-6.03,1.45,1.33-1.12,2.14-2.8,4.12-3.19,2.48-.49,4.92-1.2,7.38-1.82.11-.03.22-.04.33-.07-1.83,1.38-3.33,3.2-5.8,3.62Zm8.02-6.42c-.31.45-.69.88-.92,1.37-.28.58-.64.94-1.29,1.05-.45.07-.9.2-1.39.33-.12.12-.3.2-.52.2-.15,0-.27-.04-.38-.09-.31.21-.68.32-1.08.41-1.06.23-2.11.51-3.16.77-.03-.03-.06-.07-.09-.1-.16.1-.34.14-.52.11-.28.31-.72.41-1.52.41.17-.56.54-.7.94-.78-.03-.05-.06-.11-.07-.17-.08.02-.15.03-.23.05-.05-.06-.09-.12-.14-.18.38-.54.76-1.08,1.14-1.62.03.13.07.27.1.4.02-.02.05-.04.07-.05-.06-.12-.11-.23-.17-.35,0,0,0,0,0,0,.36-1.18.77-2.26,2.28-2.43.89-.09,1.75-.42,2.63-.58.25-.05.55.13.82.2.04-.13.05-.36.11-.37,1.13-.24,2.26-.46,3.4-.68.37-.08.75-.17,1.12-.25.16-.09.31-.18.47-.28.05.04.1.08.16.12-.58.83-1.17,1.67-1.75,2.5Zm2.34-4.83c-.09.3-.16.61-.32.88-.19.34-.47.57-.8.73-.26.23-.58.39-.9.49-1.14.37-2.34.6-3.52.84-.09.02-.21,0-.32-.03-.03.01-.07.03-.11.03-.18.05-.37.07-.55.08-.03.08-.08.14-.11.15-1.22.31-2.46.58-3.81.89.49-1.53.89-2.93,1.39-4.3.13-.36.55-.61.95-1.04.21.51.42,1,.61,1.47.06-.05.13-.08.21-.1-.19-.46-.38-.93-.57-1.39-.03-.08-.01-.19-.01-.28-.2-.18-.41-.36-.61-.54.21-.18.4-.43.64-.51.28-.09.61-.02.92-.01,1.29-.32,2.58-.64,3.87-.94.02,0,.05,0,.08.02.14-.04.29-.06.44-.05-.01-.03-.02-.06-.03-.09,1.34-.27,2.62-.52,4.03-.8-.07.35-.1.6-.17.83-.29,1.02-.53,2.06-.92,3.05-.09.22-.23.42-.38.61Zm.7.08c.76-3.44,1.81-6.05,3.38-8.46-.1,1.62-1.72,5.69-3.38,8.46Zm3.92-10.68c0,.21-.03.44-.13.62-.75,1.42-1.51,2.82-2.41,4.21,0-1.03.08-2.06-.02-3.08-.22-2.22.25-4.21,1.64-5.97.24-.31.4-.68.6-1.02.1.02.21.04.31.06,0,1.72,0,3.45,0,5.17Z"/>
    <path class="cls-3" d="m27.79,17.22c-.46,1.33-.87,2.59-1.34,3.82-.06.16-.49.31-.72.27-2.17-.38-4.33-.79-6.49-1.2-.81-.15-1.61-.31-2.57-.49.35-.5.61-.89.88-1.26.77-1.08,1.53-2.16,2.33-3.22.14-.18.45-.36.67-.34,2.58.21,4.86,1.31,7.23,2.42Z"/>
    <path class="cls-3" d="m31.16,18.59c2.87.34,5.44.97,7.81,2.23.14.07.25.45.19.6-.61,1.41-1.25,2.82-1.92,4.2-.08.16-.49.32-.65.25-2.18-.92-4.35-1.87-6.51-2.86-.17-.08-.33-.51-.27-.72.29-1.1.64-2.18,1.01-3.26.07-.22.29-.39.35-.45Z"/>
    <path class="cls-3" d="m38.06,14.38c.57.28,1.13.58,1.71.83.91.4,1.19.94.91,1.9-.21.73-.47,1.44-.69,2.17-.12.39-.33.52-.73.47-2.62-.37-5.13-1.09-7.51-2.26-.36-.18-.42-.38-.31-.73.37-1.25.76-2.49,1.09-3.75.15-.59.43-.62.93-.41,1.17.51,2.36.99,3.54,1.47.35.14.72.22,1.08.33h0Z"/>
    <path class="cls-3" d="m40.41,36.22c-.53-.26-1.1-.43-1.52-.77-1.42-1.14-2.78-2.36-4.19-3.52-.35-.29-.46-.51-.19-.93.6-.97,1.13-1.98,1.74-2.94.12-.19.48-.33.73-.33,1.66,0,2.98.79,4.13,1.92.14.14.3.36.28.53-.24,1.88-.5,3.75-.77,5.63-.01.09-.07.17-.2.43Z"/>
    <path class="cls-3" d="m24.21,27.05c-1.79-.32-3.42-.61-5.05-.91-1.23-.22-2.47-.44-3.7-.69-.2-.04-.54-.3-.52-.42.18-1.32-.03-2.71.76-3.92.25-.38.44-.46.85-.28,2.72,1.23,5.45,2.44,8.18,3.64.41.18.54.38.37.81-.18.44-.27.91-.47,1.34-.09.19-.32.32-.42.42Z"/>
    <path class="cls-3" d="m14.99,31.62c2.57.46,5.08.9,7.69,1.36-.34,1.17-.66,2.26-.98,3.33-.54,1.8-.55,1.84-2.39,1.47-1.13-.22-2.23-.57-3.33-.91-.2-.06-.46-.33-.49-.53-.22-1.45-.39-2.9-.57-4.36-.01-.09.03-.18.07-.37Z"/>
    <path class="cls-3" d="m42.07,22.81c-.09-.66-.21-1.33-.24-1.99,0-.13.35-.37.56-.4,1.36-.2,2.72-.35,4.08-.51.51-.06,3.13,1.72,3.22,2.21.04.2.01.43-.05.63-.38,1.29-.79,2.58-1.17,3.87-.16.55-.38.64-.84.28-.84-.66-1.69-1.29-2.55-1.92-.21-.15-.44-.26-.67-.38-.78-.6-1.57-1.19-2.35-1.79Z"/>
    <path class="cls-3" d="m22.93,32.12c-1.03-.47-1.93-.89-2.83-1.3-1.53-.71-3.04-1.44-4.58-2.12-.48-.21-.66-.5-.66-1.03,0-2.08-.03-2.07,1.98-1.7,2.26.42,4.52.84,6.78,1.21.61.1.82.27.59.91-.45,1.29-.84,2.61-1.29,4.02Z"/>
    <path class="cls-3" d="m5.97,20.69c1.42-.17,2.61-.32,3.8-.45,1.55-.17,3.11-.3,4.66-.49.61-.07.89.12.74.73-.17.7-.33,1.41-.62,2.06-.34.78-.79,1.51-1.2,2.26-.59,1.09-2.11,1.35-3.01.51-1.26-1.19-2.52-2.37-3.75-3.57-.24-.23-.36-.59-.62-1.05Z"/>
    <path class="cls-3" d="m31.9,34.92c2.14.37,4.05.71,5.96,1.05.35.06.73.06,1.04.22.47.23,1.2.52,1.26.87.08.52-.18,1.27-.57,1.65-.93.91-2,1.66-3.05,2.45-.14.1-.51.09-.64-.03-1.6-1.41-3.17-2.85-4.76-4.28-.31-.27-.35-.53-.08-.85.31-.37.61-.77.84-1.07Z"/>
    <path class="cls-3" d="m20.87,13.77c1.11-1.18,2.18-2.33,3.28-3.47.11-.11.35-.16.52-.13,1.65.31,3.29.63,4.94.96.09.02.16.08.32.16-.52,1.46-1.03,2.9-1.58,4.33-.06.15-.38.32-.55.29-2.35-.4-4.72-.75-6.92-2.13Z"/>
    <path class="cls-3" d="m42.31,36.34c1.29-.32,2.58-.64,3.87-.94.1-.02.29.18.4.32.18.24.33.5.5.76.03.07.06.14.09.21.48,1.01.95,2.01,1.43,3.02h0c-.13.78-.77,1.16-1.38,1.36-1.14.37-2.34.6-3.52.84-.2.04-.57-.09-.64-.24-.59-1.32-1.13-2.66-1.67-3.99-.03-.08-.01-.19-.01-.28.32-.35.64-.71.95-1.06Z"/>
    <path class="cls-3" d="m42.25,16.41c-.92-.56-.86-1.34-.64-2.26.29-1.23.25-1.15,1.48-1.32,1.86-.26,2.93.68,3.72,2.16.62,1.15,1.21,2.31,1.81,3.47.12.22.21.46.34.75-1.17.21-2.25.59-3.19-.39-.15-.16-.41-.22-.62-.33-.97-.69-1.93-1.39-2.9-2.08Z"/>
    <path class="cls-3" d="m14.53,19.53c-2.81.3-5.5.59-8.37.9.16-1.05.34-1.99.43-2.94.08-.91.44-1.67,1.03-2.35.42-.48,1.39-.63,1.86-.22,1.62,1.41,3.23,2.85,4.84,4.27.05.04.08.11.22.33Z"/>
    <path class="cls-3" d="m8.5,13.26c-.11-.7-.2-1.36-.31-2.03-.13-.77-.31-1.54-.38-2.31-.03-.28.09-.71.29-.86,1.55-1.13,3.14-2.2,4.85-3.38.15.47.28.83.37,1.21.19.76.38,1.52.53,2.29.04.22.01.56-.13.68-1.62,1.45-3.27,2.88-4.92,4.3-.05.04-.13.05-.3.1Z"/>
    <path class="cls-3" d="m8.51,13.89c1.33-1.16,2.44-2.14,3.56-3.12.48-.42.96-.84,1.45-1.25.45-.37.9-.36,1.35,0,.73.59,1.49,1.17,2.18,1.81.17.16.3.54.23.76-.49,1.76-.52,1.74-2.35,1.87-1.65.11-3.29.31-4.94.39-.43.02-.87-.26-1.49-.47Z"/>
    <path class="cls-3" d="m26.16,33.58c.54-1.64,1.04-3.16,1.57-4.77,2.05.93,4.03,1.82,6.14,2.78-.71.99-1.35,1.9-2.02,2.8-.07.09-.26.14-.38.12-1.72-.29-3.44-.6-5.3-.93Z"/>
    <path class="cls-3" d="m35.95,41.52c-.8.54-1.43.95-2.38.75-1.96-.42-3.95-.69-5.93-1.03-.67-.12-.75-.31-.32-.81,1.04-1.22,2.09-2.44,3.23-3.76,1.8,1.62,3.56,3.2,5.4,4.85Z"/>
    <path class="cls-3" d="m7.46,8.57c.2,1.26.37,2.33.53,3.4.01.07-.03.15,0,.21.5,1.09.02,1.91-.65,2.76-1.03,1.29-1.98,2.65-3.1,4.17-.11-1.01-.19-1.81-.28-2.61-.1-.92-.23-1.83-.29-2.75-.02-.28.04-.65.21-.86,1.12-1.4,2.29-2.77,3.57-4.31Z"/>
    <path class="cls-3" d="m33.94,42.84c.82.07,1.63.13,2.45.22.1.01.24.11.27.21.28.85.77,1.56.29,2.65-.77,1.75-2.2,1.95-3.72,2.15-.36.05-.77-.04-1.11-.16-.2-.07-.39-.32-.47-.53-.26-.71-.43-1.45-.69-2.17-.16-.44,0-.64.37-.84.88-.49,1.75-1.02,2.62-1.53,0,0,0,0,0,0Z"/>
    <path class="cls-3" d="m36.21,27.56c-.71,1.23-1.35,2.35-2.03,3.45-.08.13-.47.2-.65.13-1.76-.77-3.5-1.57-5.25-2.35-.35-.16-.42-.34-.31-.72.55-1.92.54-1.92,2.49-1.57,1.86.34,3.72.68,5.75,1.06Z"/>
    <path class="cls-3" d="m14.22,8.35c-.28-1.19-.56-2.34-.79-3.49-.03-.14.17-.44.33-.5,1.84-.67,3.7-1.32,5.56-1.94.15-.05.5.13.57.28.25.58.46,1.19.61,1.81.04.18-.09.53-.24.62-1.89,1.08-3.8,2.12-5.71,3.17-.06.03-.13.02-.33.06Z"/>
    <path class="cls-3" d="m6.5,26.65c1.37-.16,2.6-.36,3.85-.44.95-.06,1.67,1.05,1.33,1.93-.43,1.13-.87,2.25-1.31,3.38-.21.52-1.72,1.05-2.2.76-.13-.08-.24-.24-.28-.39-.46-1.69-.9-3.38-1.39-5.23Z"/>
    <path class="cls-3" d="m48.39,27.93c.82,1.52,1.64,2.96,2.36,4.45.2.41.09.98.05,1.47-.01.14-.27.33-.45.37-1.16.25-2.32.47-3.48.7-.11.02-.24.04-.34,0-.4-.16-1.12-2.03-.91-2.4.83-1.46,1.67-2.92,2.51-4.37.03-.05.1-.09.26-.21Z"/>
    <path class="cls-3" d="m4.96,35.24c-.35.19-.56.05-.85-.2-.91-.8-1.24-1.93-1.78-2.94-.12-.22-.27-.43-.41-.64h0c-.28-.56-.14-1.04.32-1.44.55-.46,1.1-.91,1.64-1.37.16.08.37.12.49.25,1.01,1.02,2.01,2.06,3.02,3.08.34.34.36.61-.02.93-.3.26-.54.59-.8.88-.54.48-1.08.96-1.62,1.45Z"/>
    <path class="cls-3" d="m25.98,34.49c1.41.66,2.84,1.32,4.36,2.03-.46.55-.85,1.03-1.26,1.51-.62.72-1.26,1.41-1.85,2.15-.33.41-.63.51-1.14.28-1.99-.92-2-.9-1.29-2.94.32-.94.66-1.87,1-2.8.02-.06.09-.11.19-.22Z"/>
    <path class="cls-3" d="m39.61,21.1c.62.47,1.16.85,1.65,1.28.16.14.29.4.29.61.04,1.54.04,3.08.06,4.62,0,.45-.2.53-.63.49-1.34-.11-2.46-.65-3.37-1.61-.13-.14-.27-.43-.21-.57.7-1.58,1.43-3.14,2.2-4.83Z"/>
    <path class="cls-3" d="m4.73,21.56c.94-.48,1.19-.36,1.28.73.11,1.29.19,2.59.18,3.89,0,.35-.39.7-.6,1.05-.26.21-.52.41-.78.62-.46.32-.82.28-1.2-.18-.45-.54-1.02-.99-1.47-1.54-.17-.2-.24-.6-.16-.85.17-.61.41-1.21.72-1.77.19-.36.54-.63.83-.93.23-.23.48-.45.71-.67.16-.11.32-.23.48-.34Z"/>
    <path class="cls-3" d="m49.31,19c-.8-1.54-1.53-2.94-2.25-4.34-.3-.59-.65-1.16-.89-1.77-.1-.24-.03-.62.09-.87.15-.31.43-.56.66-.83.47-.54.64-.55,1.08.06,1.05,1.43,2.09,2.86,3.11,4.32.12.17.2.53.1.68-.57.89-1.2,1.74-1.91,2.76Z"/>
    <path class="cls-3" d="m24.98,42.55c.37-.29.76-.55,1.09-.88.4-.41.88-.38,1.21-.09,1.05.92,2.03,1.9,3.15,2.97-.49.17-.86.29-1.23.41-1.28.42-2.55.87-3.85,1.25-.27.08-.68-.04-.92-.22-.52-.37-.97-.83-1.48-1.29.75-.8,1.39-1.47,2.03-2.15,0,0,0,0,0,0Z"/>
    <path class="cls-3" d="m37.49,9.12s.06.09.1.1c1.77.43,1.75,2.08,2.46,3.51-2.45-.48-4.71-.91-7.08-1.37.29-1.13.55-2.18.86-3.21.03-.1.44-.2.62-.13.78.28,1.54.62,2.31.92.24.09.5.13.75.2,0,0,0,0,0,0Z"/>
    <path class="cls-3" d="m44.66,46.59c-1.83,1.38-3.33,3.2-5.8,3.62-2.02.35-3.99,1-6.03,1.45,1.33-1.12,2.14-2.8,4.12-3.19,2.48-.49,4.92-1.2,7.38-1.82.11-.03.22-.04.33-.07Z"/>
    <path class="cls-3" d="m9.91,14.61c2.19-.19,4.38-.38,6.68-.58-.45,1.89-.87,3.63-1.32,5.55-1.89-1.66-3.65-3.2-5.41-4.75l.05-.22Z"/>
    <path class="cls-3" d="m16.67,42.4c-1.46.63-2.29.68-3.2-.62-.81-1.16-1.68-2.28-2.62-3.54.54-.1.97-.19,1.4-.27.44-.08.88-.17,1.32-.25,1.78-.3,1.79-.3,2.27,1.48.29,1.07.55,2.14.82,3.2Z"/>
    <path class="cls-3" d="m15.6,37.39c.54.11.94.13,1.29.29,1.16.52,2.3,1.1,3.46,1.64.35.16.42.38.32.73-.24.79-.47,1.59-.67,2.39-.11.43-.35.59-.77.48-.02,0-.05-.02-.07-.01-1.71.04-2.6-.74-2.78-2.49-.09-.96-.47-1.9-.77-3.02Z"/>
    <path class="cls-3" d="m31.04,52.32c-.84.32-1.67.65-2.52.95-.19.07-.43.07-.63.04-2.79-.44-5.57-.89-8.35-1.35-.16-.03-.3-.1-.45-.15.25-1.22.58-1.47,1.71-1.29,3.3.52,6.59,1.05,9.89,1.57.11.02.22.05.33.07,0,.05.01.1.02.15Z"/>
    <path class="cls-3" d="m48.17,27.61c-.75,1.32-1.44,2.55-2.15,3.77-.75,1.3-.76,1.3-1.95.34-.63-.5-1.24-1.03-1.88-1.5-.45-.33-.4-.73-.33-1.2.07-.48.38-.52.75-.58,1.61-.26,3.21-.53,4.82-.79.2-.03.41-.02.74-.04Z"/>
    <path class="cls-3" d="m16.19,20.13c.24-.08.43-.21.58-.18,3.07.56,6.14,1.14,9.21,1.72.06.01.12.07.26.16-.24.72-.46,1.46-.75,2.18-.05.13-.41.27-.54.21-2.88-1.27-5.74-2.57-8.61-3.87-.02,0-.03-.04-.15-.21Z"/>
    <path class="cls-3" d="m42.07,22.81c.78.6,1.57,1.19,2.35,1.79.83.67,1.66,1.33,2.48,2,.22.18.44.35.79.62-.37.09-.63.16-.89.2-1.36.23-2.72.42-4.07.68-.58.11-.82-.02-.82-.65,0-1.4-.05-2.8-.06-4.19,0-.15.14-.29.22-.44Z"/>
    <path class="cls-3" d="m9.8,33.91c.09-.28.16-.46.2-.64.17-.72.54-1.12,1.36-1.17.92-.06,1.82-.31,2.74-.41.19-.02.57.19.59.34.21,1.45.37,2.9.56,4.52-1.88-.91-3.64-1.76-5.45-2.63Z"/>
    <path class="cls-3" d="m37.64,45.54c.36-1.18.77-2.26,2.28-2.42.89-.09,1.75-.42,2.63-.58.25-.05.55.13.82.2.22.46.44.92.67,1.38l-.43.42c-.13.02-.28.02-.4.08-1.56.77-3.12,1.55-4.67,2.33-.18-.24-.38-.48-.55-.74-.14-.21-.23-.45-.35-.67h0Z"/>
    <path class="cls-3" d="m22.84,9.69c.32.12.65.23.99.35-.05.1-.07.18-.11.23-1.03,1.11-2.05,2.22-3.18,3.43-.87-.7-1.73-1.38-2.57-2.09-.09-.08-.08-.34-.05-.51.05-.3.16-.59.24-.89.09-.2.17-.41.26-.61.22-.54.6-.6,1.14-.48,1.08.23,2.19.39,3.28.57,0,0,0,0,0,0Z"/>
    <path class="cls-3" d="m53.85,23.18c0,1.72,0,3.45,0,5.17,0,.21-.03.44-.13.62-.75,1.42-1.51,2.82-2.41,4.21,0-1.03.08-2.06-.02-3.08-.22-2.22.25-4.21,1.64-5.97.24-.31.4-.68.6-1.02.1.02.21.04.31.06Z"/>
    <path class="cls-3" d="m53.27,21.37c.36.52.35,1.04,0,1.57-.49.73-.97,1.48-1.45,2.22-.41-.75-.82-1.49-1.24-2.24-.35-1.14-.85-2.27-.98-3.44-.06-.52.64-1.13,1.01-1.68.02-.03.28.11.42.17.62,1.05,1.24,2.09,1.87,3.13.07.12.24.18.36.27Z"/>
    <path class="cls-3" d="m36.86,26.3c-.19.53-.28,1-.96.87-2.27-.43-4.55-.84-6.83-1.27-.09-.02-.17-.07-.35-.13.26-.86.52-1.7.81-2.68,2.48,1.09,4.89,2.14,7.32,3.21Z"/>
    <path class="cls-3" d="m20.7,5.58c.19-.02.44-.13.55-.05,1.33.96,2.64,1.95,3.95,2.93-.47,1.12-1.25,1.51-2.36,1.23,0,0,0,0,0,0-1.08-.24-2.16-.46-3.23-.73-.27-.07-.49-.28-.74-.42.61-.99,1.21-1.98,1.82-2.97Z"/>
    <path class="cls-3" d="m4.96,35.24c.54-.48,1.08-.97,1.62-1.45.42-.32.84-.64,1.31-.99.39.71.77,1.39,1.15,2.08h0c-.06.53-.07,1.07-.17,1.6-.18.94-.4,1.88-.64,2.97-1.18-1.26-2.26-2.41-3.32-3.58-.09-.11.03-.41.05-.62Z"/>
    <path class="cls-3" d="m25.84,33.47c-.83-.39-1.55-.69-2.23-1.05-.15-.08-.32-.4-.28-.56.41-1.45.86-2.89,1.33-4.44.86.39,1.63.73,2.38,1.11.13.07.25.36.21.5-.44,1.44-.92,2.87-1.42,4.43Z"/>
    <path class="cls-3" d="m22.92,33.05c.84.4,1.57.73,2.27,1.11.13.07.24.41.19.57-.46,1.39-.95,2.78-1.47,4.15-.05.13-.38.16-.58.23-.02,0-.04-.02-.06-.03-2.25-1.12-1.93-.41-1.3-2.77.28-1.05.6-2.08.95-3.26Z"/>
    <path class="cls-3" d="m39.68,10c-1.02-.7-1.04-1.89-1.53-2.88,2.43-.45,3.34-.35,3.84,2.48.05-.3.08-.52.15-.94,1.1,1.25,2.1,2.39,3.12,3.54-.86.5-1.35-.22-1.97-.4-.11-.09-.23-.17-.34-.26-.32-.39-.64-.78-.89-1.08-.14.69-.66,0-1.03.03-.45-.17-.9-.33-1.35-.5Z"/>
    <path class="cls-3" d="m27.65,2.83c-1.48.44-2.88.86-4.29,1.27-.61.18-1.24.31-1.85.5-.49.15-.7-.04-.82-.49-.09-.34-.23-.67-.34-1.01-.28-.87-.26-.94.63-1.02,1.84-.17,3.68-.28,5.51-.47.91-.1.85.6,1.15,1.23Z"/>
    <path class="cls-3" d="m30.12,51.18c-.32.08-.67.28-.96.21-1.39-.33-2.77-.74-4.15-1.12-.32-.09-.6-.19-.47-.61h0c.61-1.09,1.65-1.02,2.69-1,1.41.03,2.81,0,4.32,0-.24.51-.44.93-.63,1.34-.26.39-.53.78-.79,1.17Z"/>
    <path class="cls-3" d="m45.18,33.02c-.63.66-1.33,1.27-1.87,2.01-.6.82-1.4.94-2.39,1.01.26-1.94.51-3.82.77-5.76.17.07.31.09.41.17,1.03.86,2.05,1.72,3.07,2.59,0,0,0,0,0,0Z"/>
    <path class="cls-3" d="m30.16,11.33q2.3.62,1.71,2.72c-.28.99-.57,1.98-.88,3.08-.8-.34-1.52-.62-2.21-.95-.12-.06-.24-.37-.19-.5.5-1.45,1.03-2.88,1.57-4.35Z"/>
    <path class="cls-3" d="m30.57,18.6c-.41,1.3-.8,2.55-1.22,3.78-.03.09-.37.16-.52.1-.62-.23-1.23-.48-1.82-.79-.16-.08-.32-.42-.27-.58.35-1.13.73-2.25,1.14-3.36.05-.15.39-.33.52-.28.65.22,1.27.51,1.89.8.12.06.19.22.27.33Z"/>
    <path class="cls-3" d="m25.82,8.45c.96-.73,1.78-1.39,2.64-2,.17-.12.5-.07.74-.04.58.09,1.16.22,1.74.32.49.09.62.33.42.8-.31.74-.56,1.51-.88,2.24-.07.17-.41.39-.53.34-1.34-.51-2.66-1.07-4.14-1.67Z"/>
    <path class="cls-3" d="m45.73,12.15c-.53-.59-1.01-1.1-1.47-1.63-.97-1.1-1.92-2.21-2.89-3.3-.25-.29-.38-.54-.05-.84.28-.26.54-.4.92-.1,1.53,1.23,3.08,2.43,4.6,3.67.14.11.21.5.13.64-.35.52-.77,1-1.23,1.57Z"/>
    <path class="cls-3" d="m24.02,5.3c-.51-.15-1.03-.3-1.66-.49.24-.11.36-.19.5-.23,1.45-.43,2.92-.83,4.36-1.28.47-.15.86-.11,1.25.2.5.39,1.03.74,1.7,1.21-.7.52-1.32.97-1.93,1.42,0,0,0,0,0,0-1.19-.25-2.38-.49-3.57-.74-.22-.03-.44-.06-.66-.1Z"/>
    <path class="cls-3" d="m10.5,31.97c.61-1.55,1.15-2.96,1.74-4.47.73.35,1.41.65,2.06,1,.14.08.23.34.25.53.04.4.02.8.02,1.21,0,1.13,0,1.13-1.08,1.3-.95.14-1.91.27-3,.43Z"/>
    <path class="cls-3" d="m14.88,28.73c2.76,1.29,5.33,2.49,7.9,3.69-.02.07-.04.13-.06.2-.12.02-.25.07-.37.05-2.28-.4-4.56-.82-6.84-1.2-.47-.08-.65-.28-.64-.75.02-.6,0-1.21,0-2Z"/>
    <path class="cls-3" d="m41.12,37.69c.6,1.44,1.13,2.69,1.63,3.96.05.13-.07.47-.16.49-1.22.31-2.46.58-3.81.89.49-1.53.89-2.93,1.39-4.3.13-.36.55-.61.95-1.04Z"/>
    <path class="cls-3" d="m7.6,40.24c.77,1.04.46,2.27.66,3.55-.22-.16-.36-.22-.45-.32-.84-.93-1.66-1.88-2.51-2.79-.51-.55-.91-1.1-.9-1.92.01-.7-.1-1.4-.17-2.21.24.14.41.24.58.34.93,1.12,1.86,2.23,2.79,3.35Z"/>
    <path class="cls-3" d="m3.2,17.38c.33-.11.5-.07.57.35.18,1.12.13,2.17-.4,3.22-.61,1.21-1.07,2.5-1.7,3.74-.09-1-.18-1.99-.26-2.99-.06-.73-.08-1.46-.17-2.19-.06-.45.07-.78.44-1.02.51-.37,1.02-.75,1.53-1.12Z"/>
    <path class="cls-3" d="m47.16,36.69c-.03-.07-.06-.14-.09-.21-.13-.37-.25-.74-.41-1.2,1.34-.27,2.62-.52,4.03-.8-.07.35-.1.6-.17.83-.29,1.02-.53,2.06-.92,3.05-.2.51-.67.91-1.02,1.36,0,0,0,0,0,0-.48-1.01-.95-2.01-1.43-3.02Z"/>
    <path class="cls-3" d="m42.25,16.41c.97.69,1.93,1.39,2.9,2.08.37.33.73.65,1.2,1.07-.68.1-1.29.21-1.89.28-.73.09-1.45.19-2.18.23-.19,0-.52-.18-.55-.33-.23-1.01-.42-2.04-.58-3.06-.03-.2.08-.43.14-.71.39.17.68.3.97.43Z"/>
    <path class="cls-3" d="m38.6,35.77c-2.13-.37-4.25-.75-6.55-1.15.7-1,1.33-1.9,2.03-2.89,1.56,1.33,3.08,2.61,4.59,3.9-.02.05-.04.09-.06.14Z"/>
    <path class="cls-3" d="m15.22,37.11c-.35.09-.7.2-1.05.26-.98.19-1.96.34-2.93.54-.41.09-.62-.04-.78-.4-.27-.6-.64-1.18-.82-1.81-.13-.44-.02-.94-.02-1.58,1.98.96,3.8,1.84,5.62,2.72,0,.09,0,.18,0,.26Z"/>
    <path class="cls-3" d="m19.83,14.64c-.29.42-.51.75-.74,1.07-.82,1.16-1.64,2.32-2.49,3.45-.14.19-.49.22-.74.32-.06-.24-.21-.51-.16-.73.28-1.34.62-2.67.91-4.01.12-.53.38-.71.91-.58.73.17,1.46.31,2.32.48Z"/>
    <path class="cls-3" d="m13.07,46.48c-1.43-.72-2.82-1.41-4.19-2.12-.13-.07-.24-.3-.25-.47-.07-.8-.1-1.6-.15-2.57.32.2.51.31.68.43,1.04.78,2.08,1.56,3.12,2.34.76.57.99,1.19.79,2.38Z"/>
    <path class="cls-3" d="m24.02,5.3c.22.03.44.06.66.1,1.19.25,2.38.49,3.57.74,0,0,0,0,0,0-.79.64-1.56,1.3-2.37,1.91-.14.11-.49.14-.63.04-1.31-.93-2.59-1.9-4.02-2.95,1.07-.38,1.92.25,2.8.17Z"/>
    <path class="cls-3" d="m43.61,44.54c.14-.14.29-.28.43-.42.95-.81,1.9-1.62,2.85-2.42.37-.08.75-.17,1.12-.25-.37.78-.75,1.57-1.12,2.35-.31.45-.69.88-.92,1.37-.28.58-.64.94-1.29,1.05-.58.09-1.14.27-1.8.43.02-.24.04-.41.05-.58.23-.51.45-1.02.68-1.52Z"/>
    <path class="cls-3" d="m31.49,47.81c-2.2-.37-4.26-.71-6.49-1.08.25-.16.34-.25.46-.28,1.5-.5,3.01-.99,4.5-1.5.42-.14.67-.08.8.38.22.79.46,1.56.73,2.48Z"/>
    <path class="cls-3" d="m38.07,14.39c-1.25-.55-2.5-1.1-3.75-1.65-.5-.22-1-.45-1.5-.67.02-.08.03-.16.05-.25.2-.02.41-.08.6-.05,2.02.39,4.03.8,6.05,1.17.44.08.67.26.72.71.06.49.17.97.28,1.56-.89-.3-1.67-.56-2.46-.83,0,0,0,0,0,0Z"/>
    <path class="cls-3" d="m6.18,21.88c.22.13.29.15.34.2,1.16,1.3,2.32,2.61,3.48,3.92l.31-.22c-.1.07-.19.18-.3.2-1.03.16-2.05.32-3.08.42-.14.01-.44-.27-.46-.44-.12-1.31-.2-2.62-.29-4.07Z"/>
    <path class="cls-3" d="m28.37,25.74c-.87-.38-1.61-.69-2.33-1.05-.15-.08-.32-.39-.28-.54.2-.77.47-1.53.75-2.39.85.38,1.63.7,2.39,1.07.12.06.25.31.22.44-.21.8-.47,1.58-.74,2.48Z"/>
    <path class="cls-3" d="m30.12,51.18c.26-.39.53-.78.79-1.17.23-.3.49-.58.68-.9.31-.51.78-.71,1.32-.67.68.06,1.34.2,2.26.34-1.03.97-1.83,1.93-2.83,2.57-.54.35-1.42.16-2.15.19-.02,0-.05-.24-.08-.36Z"/>
    <path class="cls-3" d="m20.7,5.58c-.61.99-1.21,1.98-1.82,2.97-.33.1-.66.24-.99.29-.95.12-1.91.2-2.87.29h0c-.15-.1-.3-.2-.56-.37.52-.29.95-.53,1.38-.77,1.41-.78,2.81-1.57,4.22-2.34.18-.09.43-.05.64-.07Z"/>
    <path class="cls-3" d="m21.17,39.69c.71.37,1.34.69,1.95,1.04.07.04.04.31,0,.45-.29.8-.61,1.59-.9,2.39-.13.35-.34.43-.65.24-.02-.01-.04-.02-.06-.03-1.64-.84-1.44-.5-1.02-2.12.13-.5.26-1.01.41-1.51.05-.15.18-.28.3-.47Z"/>
    <path class="cls-3" d="m1.92,33.35c2.32,1.4,2.26,3.72,2.34,5.96-2.21-1.41-2.66-3.55-2.34-5.96Z"/>
    <path class="cls-3" d="m12.9,48.81c-.48-.25-.95-.5-1.43-.74-.76-.84-1.51-1.68-2.27-2.52-.09-.19-.18-.37-.26-.56.03-.04.05-.08.08-.12,1.86.99,3.72,1.98,5.58,2.97.19.28.38.56.57.84-.75.05-1.51.09-2.26.14Z"/>
    <path class="cls-3" d="m8.74,40.25c.28.12.41.17.54.23,1.44.71,2.87,1.43,4.32,2.14.54.27.62.53.18,1-.74.78-.72.8-1.59.15-1.06-.8-2.12-1.58-3.17-2.39-.18-.14-.39-.31-.45-.51-.05-.17.11-.39.18-.62Z"/>
    <path class="cls-3" d="m33.94,42.83c-.87.43-1.75.82-2.59,1.3-.51.29-.84.22-1.24-.18-.74-.76-1.53-1.46-2.24-2.35.45.07.89.14,1.34.22,1.28.22,2.57.42,3.85.66.3.06.58.24.87.36,0,0,0,0,0,0Z"/>
    <path class="cls-3" d="m32.66,11.27c-.68-.28-1.26-.49-1.8-.77-.13-.07-.24-.4-.19-.56.29-.85.61-1.69.98-2.51.07-.16.42-.29.64-.27.27.02.57.14.78.31.18.15.4.45.36.64-.2,1.02-.48,2.02-.77,3.16Z"/>
    <path class="cls-3" d="m27.49,28.42c-.87-.4-1.66-.72-2.4-1.12-.14-.07-.21-.49-.14-.69.21-.56.51-1.09.78-1.64.78.35,1.56.69,2.32,1.05.07.04.12.26.08.38-.19.65-.41,1.29-.65,2.02Z"/>
    <path class="cls-3" d="m37.5,9.12c-.97-.43-1.93-.86-2.9-1.27-.4-.17-.7-.31-.53-.87.17-.56.49-.62.97-.5.3.07.6.18.9.18,1.85-.04,2.38,1.21,2.71,2.73-.39-.09-.77-.18-1.15-.28,0,0,0,0,0,0Z"/>
    <path class="cls-3" d="m43.61,44.54c-.23.51-.45,1.02-.68,1.52-.36.63-.95.85-1.62.99-1.06.23-2.11.51-3.16.77-.05-.05-.1-.11-.15-.16.18-.24.36-.48.54-.72,1.56-.78,3.11-1.56,4.67-2.33.12-.06.27-.05.4-.08Z"/>
    <path class="cls-3" d="m39.65,39.18c-.37,1.17-.72,2.34-1.12,3.5-.05.15-.33.32-.5.31-1.07-.04-1.36-.23-1.52-1-.04-.18.03-.48.17-.6.94-.79,1.9-1.54,2.85-2.3.04.03.08.06.12.09Z"/>
    <path class="cls-3" d="m4.81,27.85c.26-.21.52-.41.78-.62.21-.1.41-.21.72-.37.42,1.57.84,3.11,1.24,4.6-1.05-.98-2.11-1.95-3.18-2.94.19-.29.31-.48.43-.67Z"/>
    <path class="cls-3" d="m48.41,27.49c.88-.14,1.59-.26,2.38-.39v4.51s-.08.05-.12.08c-.72-1.35-1.45-2.69-2.26-4.2Z"/>
    <path class="cls-3" d="m20.56,1.79c1.12-.86,2.06-1.52,3.4-1.35,1.3.16,2.61.13,3.92.19.02.07.04.13.05.2-.35.15-.68.4-1.04.43-2.04.2-4.08.35-6.34.54Z"/>
    <path class="cls-3" d="m3.9,28.65c-.55.46-1.1.91-1.64,1.37-.19.07-.39.14-.58.2-.41-.93-.38-2.35.15-4.09.74.9,1.41,1.71,2.07,2.52Z"/>
    <path class="cls-3" d="m24.97,42.55c-.57.48-1.13.97-1.72,1.43-.18.14-.44.2-.66.29,0-.26-.07-.54.01-.77.24-.74.51-1.47.84-2.17.09-.19.45-.39.67-.37.62.04,1.23.2,1.94.33-.42.49-.75.87-1.08,1.26,0,0,0,0,0,0Z"/>
    <path class="cls-3" d="m12.9,48.81c.75-.05,1.51-.09,2.26-.14.9.43,1.8.85,2.7,1.28.51.41.33.91.2,1.56-1.77-.92-3.47-1.81-5.16-2.7Z"/>
    <path class="cls-3" d="m9.15,40.03c.03-.14.03-.17.04-.18,1.25-1.68,1.33-1.69,2.56-.04.51.68,1.01,1.37,1.51,2.05.02.03.02.09.04.24-1.41-.7-2.77-1.38-4.14-2.06Z"/>
    <path class="cls-3" d="m31.47,48.39c-.44.04-.88.11-1.31.12-1.23.02-2.45.01-3.68.01-1.15,0-1.24-.09-1.33-1.4,2.12.35,4.22.69,6.32,1.04v.23Z"/>
    <path class="cls-3" d="m8.94,46.18c-2.09-2.37-4.54-4.44-5.83-7.43,1.9,2.51,4.59,4.4,5.83,7.43Z"/>
    <path class="cls-3" d="m26.11,33.9c1.76.31,3.52.63,5.44.97-.35.5-.59.87-.88,1.2-.09.1-.36.15-.49.09-1.35-.61-2.69-1.25-4.03-1.89-.05-.02-.07-.11-.11-.17.02-.07.04-.13.06-.2Z"/>
    <path class="cls-3" d="m49.92,39.04c.76-3.44,1.81-6.05,3.38-8.46-.1,1.62-1.72,5.69-3.38,8.46Z"/>
    <path class="cls-3" d="m30.04,10.94c-1.8-.27-3.58-.65-5.38-1.02.57-1.16.84-1.27,1.91-.83.98.4,1.97.8,2.95,1.22.21.09.41.23.61.35-.03.1-.06.19-.09.29Z"/>
    <path class="cls-3" d="m37.51,6.62c-1.04-.2-1.87-.33-2.69-.54-.18-.05-.43-.4-.41-.58.07-.77.24-1.52.41-2.5.93,1.26,1.76,2.36,2.69,3.62Z"/>
    <path class="cls-3" d="m49.98,23.08c.26,1.08.54,2.15.78,3.24.03.14-.14.43-.26.46-.59.14-1.19.22-1.94.35.44-1.46.84-2.77,1.24-4.07.06,0,.12.02.19.02Z"/>
    <path class="cls-3" d="m39.68,10c.45.17.9.33,1.35.5.34.25.67.51,1.01.76h0c-.07.21-.18.43-.2.66-.04.59-.38.78-.91.85-.56.07-.68-.28-.83-.67-.2-.53-.44-1.04-.61-1.58-.04-.14.11-.34.18-.52Z"/>
    <path class="cls-3" d="m15.3,43.97c.82.91,1.63,1.83,2.23,2.49-1.12-.51-2.62-1.18-4.25-1.91.38-.46.7-.84,1.02-1.22.39.25.7.45,1.01.65,0,0,0,0,0,0Z"/>
    <path class="cls-3" d="m17.66,11.8c.86.7,1.63,1.31,2.38,1.94.09.07.17.3.13.34-.11.13-.3.29-.43.27-.84-.13-1.67-.28-2.49-.47-.1-.02-.24-.31-.21-.42.17-.53.39-1.04.63-1.66Z"/>
    <path class="cls-3" d="m3.2,17.38c-.51.37-1.02.75-1.53,1.12-.05-.15-.17-.33-.13-.43.54-1.33,1.11-2.66,1.68-4.01.51,1.02.49,2.75-.02,3.33Z"/>
    <path class="cls-3" d="m46.69,9.4c-1.78-1.61-3.82-2.75-5.25-4.61,1.93,1.27,4.33,2.01,5.25,4.61Z"/>
    <path class="cls-3" d="m33.55,3.02c-.91.43-1.82.87-2.74,1.28-.15.07-.4.1-.53.02-.56-.34-1.08-.72-1.57-1.26,1.6-.07,3.2-.14,4.8-.22.01.06.03.12.04.18Z"/>
    <path class="cls-3" d="m18.43,9.6c-.09.2-.17.41-.26.61-.19.32-.38.64-.65,1.09-.86-.75-1.68-1.46-2.5-2.18,0,0,0,0,0,0,.93-.04,1.87-.06,2.8-.13.49-.04.71.1.61.61Z"/>
    <path class="cls-3" d="m17.74,47c-1.34-.16-2.7-.25-4.01-.56-.3-.07-.41-.92-.61-1.42.07-.07.15-.13.22-.2,1.48.66,2.96,1.32,4.44,1.98-.01.06-.03.13-.04.19Z"/>
    <path class="cls-3" d="m24.98,48.4c-1.29-.27-2.56-.54-4.07-.87.32-.27.47-.51.65-.52.82-.07,1.65-.14,2.46-.08.87.07,1.03.37.97,1.46Z"/>
    <path class="cls-3" d="m35.85,3.56c1.38.95,2.76,1.89,4.17,2.86-1.25.54-1.99.36-2.74-.65-.52-.7-1.02-1.41-1.53-2.11l.11-.09Z"/>
    <path class="cls-3" d="m24.55,49.66c-.3.26-.58.29-.95.06-.92-.56-1.86-1.06-2.75-1.74,1.43-.04,2.76.37,4.18.66-.19.4-.34.71-.49,1.02,0,0,0,0,0,0Z"/>
    <path class="cls-3" d="m21.21.86c-1.93,1.54-4.33,1.9-6.53,2.78,1.85-1.71,4.21-2.2,6.53-2.78Z"/>
    <path class="cls-3" d="m14.58,28.23c-.74-.34-1.31-.59-1.87-.88-.1-.05-.21-.26-.18-.33.2-.4.36-.87.69-1.12.27-.21.77-.22,1.14-.16.12.02.19.56.21.87.03.48,0,.97,0,1.62Z"/>
    <path class="cls-3" d="m17.15,47.96c.42-.14.84-.33,1.27-.41.23-.04.61.02.73.18.32.45.98.79.74,1.49-.07.19-.43.49-.47.46-.27-.19-.59-.41-.71-.7-.1-.24.06-.58.03-.9-.1.34-.21.69-.35,1.14-.6-.3-1.11-.56-1.69-.85.19-.17.32-.29.46-.41,0,0,0,0,0,0Z"/>
    <path class="cls-3" d="m46.89,41.69c-.95.81-1.9,1.62-2.85,2.42-.22-.46-.44-.92-.67-1.38.04-.13.05-.36.11-.37,1.13-.24,2.26-.46,3.4-.68Z"/>
    <path class="cls-3" d="m8.51,39.68c.26-1.25.52-2.49.83-3.96.4.83.71,1.45,1,2.09.05.11.08.32.02.39-.51.56-1.04,1.1-1.57,1.64-.09-.06-.18-.11-.27-.17Z"/>
    <path class="cls-3" d="m17.01,42.98c.16-.05.33-.14.49-.14.28.01.56.09.83.14,1.61.29,1.69.45.94,2.04-.84-.3-1.68-.57-1.96-1.59-.04-.17-.21-.3-.31-.45h0Z"/>
    <path class="cls-3" d="m20.01,43.32c.49.23.86.45,1.26.59.59.21.69.53.41,1.07-.32.62-.76.85-1.28.67-.68-.24-.95-.63-.67-1.34.11-.28.16-.58.28-1Z"/>
    <path class="cls-3" d="m6.46,17c-.18,1.08-.34,2.16-.54,3.24-.08.42-.3.56-.69.22-.94-.8-.95-.79-.21-1.79.43-.58.86-1.16,1.28-1.74.05.02.11.04.16.06Z"/>
    <path class="cls-3" d="m32.95,3.74c.51-.27,1.02-.53,1.69-.88-.23,1.09-.43,2-.64,3.01-.57-.29-1.25-.18-1.47-.9.14-.41.28-.82.42-1.23Z"/>
    <path class="cls-3" d="m53.27,21.37c-.12-.09-.29-.15-.36-.27-.63-1.04-1.25-2.09-1.87-3.13-.28-.69-.27-.72.57-1.59.57,1.72,1.12,3.36,1.67,4.99Z"/>
    <path class="cls-3" d="m.94,24.38c.15.2.33.34.35.5.05.42.06.85.01,1.27-.11,1.05-.26,2.1-.47,3.14-.03-.51-.1-1.02-.1-1.53.01-2.24-.26-4.5.22-6.73.01-.07.03-.13.09-.19-.2,1.2.57,2.45-.1,3.55Z"/>
    <path class="cls-3" d="m45.17,33.02c.34.63.69,1.26,1.09,2.01-1.13.23-2.08.42-3.18.64.76-.97,1.43-1.81,2.09-2.65,0,0,0,0,0,0Z"/>
    <path class="cls-3" d="m29.09,6.09c.84-1.25,1.65-1.38,2.98-.48-.22,1.03-.32,1.1-1.3.92-.51-.09-1.02-.2-1.52-.32-.06-.01-.11-.08-.16-.12Z"/>
    <path class="cls-3" d="m23.64,50.05c-.96.48-2.24.37-2.84-.28-.21-.23-.24-.66-.28-1.01,0-.06.39-.28.5-.23.72.35,1.41.75,2.11,1.15.16.09.3.21.52.37Z"/>
    <path class="cls-3" d="m32.74,2.68c-1.32,0-2.64-.05-3.96.02-.74.04-1.01-.31-1.19-1.09,1.78.28,3.47.56,5.17.83,0,.08-.01.16-.02.25Z"/>
    <path class="cls-3" d="m41.35,5.68c-.36.73-.71.78-1.21.42-1.05-.75-2.13-1.46-3.12-2.34,1.43.63,2.87,1.27,4.33,1.92Z"/>
    <path class="cls-3" d="m24.36,46.57c-.91-.13-1.79-.25-2.76-.39.13-.34.19-.6.32-.81.4-.64.88-.68,1.39-.15.35.35.68.71,1.02,1.07.02.02,0,.09.02.29Z"/>
    <path class="cls-3" d="m17.15,47.96c-1.33.49-2.13-.63-3.19-.96.01-.07.03-.13.04-.2,1.4.15,2.8.3,4.37.46-.51.29-.87.5-1.22.7,0,0,0,0,0,0Z"/>
    <path class="cls-3" d="m7.6,40.24c-.93-1.12-1.86-2.23-2.79-3.35-.17-.27-.33-.55-.5-.82.05-.04.09-.09.14-.13.69.73,1.43,1.41,2.04,2.19.59.74,1.61,1.22,1.68,2.51-.28-.2-.43-.3-.57-.4Z"/>
    <path class="cls-3" d="m15.31,43.98c-.14-.19-.27-.37-.41-.56.02-.03.03-.06.05-.1.66.32,1.28.73,1.97.94.84.26.94,1.06,1.4,1.59.08.18.17.35.25.53-.16-.02-.37.01-.48-.08-.72-.61-1.41-1.24-2.11-1.86-.21-.18-.45-.32-.68-.48,0,0,0,0,0,0Z"/>
    <path class="cls-3" d="m21.44,38.48c.65.31,1.32.6,1.94.97.13.07.16.44.1.64-.03.1-.38.21-.53.15-.42-.14-.82-.36-1.22-.56-.66-.33-.69-.42-.29-1.2Z"/>
    <path class="cls-3" d="m18.57,46.38c-.08-.18-.17-.35-.25-.53-.08-.27-.15-.54-.28-.98.78.39,1.46.71,2.12,1.08.05.03-.03.31-.04.47-.13.08-.26.17-.39.25-.49.33-.92.4-1.16-.29Z"/>
    <path class="cls-3" d="m4.73,21.56c-.16.11-.32.23-.48.34-.34.19-.68.38-1.16.64.39-.92.73-1.73,1.07-2.55,1.07.64,1.12.79.57,1.56Z"/>
    <path class="cls-3" d="m28.13,16.98c.12-.27.19-.44.29-.68.75.32,1.47.59,2.16.95.16.08.19.43.28.65-.07.05-.14.1-.21.15-.81-.34-1.63-.69-2.52-1.06Z"/>
    <path class="cls-3" d="m40.96,17.45c.15.85.31,1.7.49,2.67-.48-.09-.88-.16-1.41-.26.28-.86.52-1.63.77-2.4.05,0,.1,0,.15,0Z"/>
    <path class="cls-3" d="m33.46,7.44c-.42-.5-1.46-.08-1.37-1.09.06-.66.49-.71,1.06-.43.81.39.86.46.31,1.52Z"/>
    <path class="cls-3" d="m41.39,22.12c-.51-.38-.96-.68-1.36-1.04-.13-.12-.22-.4-.18-.58.03-.11.33-.24.5-.23,1.11.05,1.26.32,1.03,1.84Z"/>
    <path class="cls-3" d="m32.21,2.03c-1.41-.23-2.82-.46-4.22-.69-.02-.09-.03-.18-.05-.27.32-.09.68-.33.95-.26,1.13.31,2.24.71,3.35,1.08-.01.05-.02.09-.03.14Z"/>
    <path class="cls-3" d="m49.51,21.5c-.8-.57-1.47-1.06-2.17-1.57,1.58-.71,1.92-.48,2.17,1.57Z"/>
    <path class="cls-3" d="m17.86,49.95c-.9-.43-1.8-.85-2.7-1.28-.19-.28-.38-.56-.57-.84,1.18.57,2.36,1.13,3.53,1.71.09.05.12.21.18.32-.15.03-.29.06-.44.09Z"/>
    <path class="cls-3" d="m13.3,25.53c.56-1.02,1.02-1.88,1.49-2.74.03.01.07.02.1.03-.07.67-.11,1.34-.2,2.01-.11.76-.73.56-1.39.7Z"/>
    <path class="cls-3" d="m37.17,3.36c1.05.26,2.11.49,3.14.82.32.1.55.48.82.73-.05.07-.11.15-.16.22l-3.84-1.67s.03-.07.04-.11Z"/>
    <path class="cls-3" d="m40.89,15.42c-.12-.68-.29-1.35-.31-2.03,0-.15.53-.32.82-.48.07.06.13.13.2.19-.12.77-.25,1.53-.37,2.3-.11,0-.23.02-.34.02Z"/>
    <path class="cls-3" d="m50.58,22.92c.41.75.83,1.49,1.24,2.24-.15.34-.3.67-.45,1.01-.07,0-.14,0-.2,0-.19-1.09-.78-2.08-.59-3.25Z"/>
    <path class="cls-3" d="m42.95,11.55c.11.09.23.17.34.26.17.19.34.38.56.64-.62.06-1.22.11-1.9.18.03-.51.06-.95.09-1.38,0,0,0,0,0,0,.3.1.61.19.91.29Z"/>
    <path class="cls-3" d="m18.2,37.85c.94.17,1.87.34,2.88.52-.07.3-.13.54-.21.88-.95-.45-1.83-.87-2.7-1.29.01-.04.02-.07.03-.11Z"/>
    <path class="cls-3" d="m35.1,1.36c.72.28,1.43.55,2.15.83,0,.07,0,.14-.01.21-.64,0-1.3.06-1.93-.04-.19-.03-.31-.51-.47-.79.09-.07.17-.14.26-.21Z"/>
    <path class="cls-3" d="m26.28,41c-.8-.14-1.6-.27-2.48-.42.06-.28.11-.49.2-.87.83.4,1.59.76,2.34,1.12-.02.06-.04.11-.06.17Z"/>
    <path class="cls-3" d="m36.36,2.83c1.37-.48,2.42-.11,3.43.83-1.17-.28-2.24-.54-3.43-.83Z"/>
    <path class="cls-3" d="m32.95,3.74c-.14.41-.28.82-.42,1.23-.6.46-.95-.15-1.46-.43.63-.27,1.25-.53,1.88-.8Z"/>
    <path class="cls-3" d="m29.69.7c1.46-.46,2.37.38,3.3,1.14-1.07-.37-2.14-.74-3.3-1.14Z"/>
    <path class="cls-3" d="m32.44.76c.59.12,1.18.23,1.76.37.62.15.42.59.36,1.12-.78-.48-1.48-.91-2.17-1.34.02-.05.04-.1.06-.15Z"/>
    <path class="cls-3" d="m9.2,45.54c.76.84,1.51,1.68,2.27,2.52-1.33-.32-1.98-1.26-2.27-2.52Z"/>
    <path class="cls-3" d="m37.63,45.53c.12.47.24.95.38,1.51-.49.11-.93.2-1.37.3-.05-.06-.09-.12-.14-.18.38-.54.76-1.08,1.14-1.62,0,0,0,0,0,0Z"/>
    <path class="cls-3" d="m17.01,42.98c.09.33.18.67.3,1.11-.66-.33-1.24-.61-1.96-.97.65-.2,1.12-.53,1.67-.13,0,0,0,0,0,0Z"/>
    <path class="cls-3" d="m27.83,16.85c-.83-.35-1.65-.7-2.46-1.04,0-.04.02-.07.03-.11.77.14,1.53.27,2.3.43.49.1.37.37.14.72Z"/>
    <path class="cls-3" d="m33.51,18.65c-.67-.13-1.34-.24-1.99-.41-.15-.04-.23-.31-.35-.47.18-.03.39-.12.54-.06.63.24,1.24.52,1.86.79-.02.05-.04.1-.06.15Z"/>
    <path class="cls-3" d="m38.27,43.37c-.28.49-.48.85-.77,1.37-.21-.59-.36-1.01-.57-1.58.49.08.83.13,1.34.21Z"/>
    <path class="cls-3" d="m42.31,36.34c-.32.35-.64.71-.95,1.06-.2-.18-.41-.36-.61-.54.21-.18.4-.43.64-.51.28-.09.61-.02.92-.01Z"/>
    <path class="cls-3" d="m9.5,33.78c-.35-.41-.57-.65-.79-.9-.06-.07-.09-.16-.17-.31.25-.05.45-.09.64-.12.21-.04.41-.07.81-.13-.16.49-.29.87-.49,1.46Z"/>
    <path class="cls-3" d="m36,48.24c.29-.96,1.15-.68,1.82-.97-.25.78-.64.98-1.82.97Z"/>
    <path class="cls-3" d="m41.34,29.48c-.47-.37-.94-.74-1.46-1.14,1.82.04,1.96.38,1.46,1.14Z"/>
    <path class="cls-3" d="m23.54,50.36c1.18-.24,2.19.45,3.27.73-1.1-.18-2.2-.35-3.29-.53,0-.06.01-.13.02-.19Z"/>
    <path class="cls-3" d="m37.16,26.46c.47.38.83.67,1.19.96l-.06.16c-.5-.09-1-.19-1.6-.3.19-.32.31-.54.48-.83Z"/>
    <path class="cls-3" d="m30.45,10.69l2.07.9c-.05.11-.09.22-.14.33-.69-.29-1.39-.57-2.08-.86.05-.12.1-.25.15-.37Z"/>
    <path class="cls-3" d="m37.2,19.67c.68.14,1.37.26,2.05.42.12.03.21.23.31.36-.16.04-.34.17-.46.12-.65-.25-1.28-.53-1.92-.81,0-.03.02-.06.03-.09Z"/>
    <path class="cls-3" d="m46.88,43.79c.37-.78.75-1.57,1.12-2.35.16-.09.31-.18.47-.28.05.04.1.08.16.12-.58.83-1.17,1.67-1.75,2.5Z"/>
    <path class="cls-3" d="m12.77,25.83c-.26.49-.42.8-.63,1.19-.32-.29-.57-.52-.99-.9.59-.11,1.02-.18,1.62-.29Z"/>
    <path class="cls-3" d="m23.2,32.61c.8.38,1.59.75,2.39,1.13-.03.07-.07.15-.1.22l-2.41-1.1c.04-.08.08-.16.12-.25Z"/>
    <path class="cls-3" d="m19.23,50.57c-.21.37-.43.74-.64,1.11-.09-.02-.17-.04-.26-.06.05-.35.05-.73.18-1.05.05-.12.4-.12.62-.17.03.06.07.12.1.18Z"/>
    <path class="cls-3" d="m31.6,52.46c1.35-.36,2.7-.72,4.04-1.08.01.04.02.09.04.13-1.35.36-2.7.72-4.04,1.08-.01-.04-.02-.09-.04-.13Z"/>
    <path class="cls-3" d="m35.09,42.35c.3-.16.6-.33.98-.54.14.29.25.53.44.91-.55-.09-.97-.16-1.39-.23,0-.05-.02-.1-.03-.15Z"/>
    <path class="cls-3" d="m19.73,46.67c.13-.08.26-.17.39-.25.09-.03.18-.1.26-.09.21.03.42.1.64.15-.15.15-.28.38-.46.44-.3.09-.64.07-1.01.1.07-.15.12-.25.17-.35Z"/>
    <path class="cls-3" d="m1.64,34.96c-.16-.8-.31-1.6-.47-2.41.75.69.34,1.64.47,2.41Z"/>
    <path class="cls-3" d="m9.05,34.88c-.2-.55-.4-1.1-.59-1.63.9.45,1.07.91.59,1.63,0,0,0,0,0,0Z"/>
    <path class="cls-3" d="m1.38,30.19c.05.58.09,1.15.14,1.73-.08,0-.16.01-.24.02-.4-.54-.11-1.15.1-1.75Z"/>
    <path class="cls-3" d="m35.65,47.84c-.26.67-.36.69-1.63.33.65-.13,1.12-.22,1.63-.33Z"/>
    <path class="cls-3" d="m1.92,31.45c.24.63.49,1.27.72,1.87-.89-.65-1.03-1-.71-1.86,0,0,0,0,0,0Z"/>
    <path d="m42.95,11.55c-.3-.1-.61-.19-.91-.29-.34-.25-.67-.51-1.01-.76.37-.03.89.66,1.03-.03.25.3.57.69.89,1.08Z"/>
    <g>
      <path class="cls-1" d="m32.97,1.15c1.67-.14,3.15.51,4.61,1.17,3.34,1.52,6.21,3.71,8.79,6.29,2.34,2.33,3.86,5.2,5.19,8.17.3.67.28,1.42.32,2.14.29.57.17,1.18.2,1.78.02.49-.06,1.09.73,1.09.02.19.04.38.06.57-.31.49-.28,1.07-.34,1.6-.49-.04-.39-.54-.71-.65,0,0,0,0,0,0-.29-1.63-.8-3.15-2.21-4.19-.39-.18-.61-1.03-1.08-.62-.62.55-1.28.33-2.1.51,1.39.64,2.14,1.61,1.66,3.02-.53,1.55-1.55,2.8-2.86,3.8-.6.06-.62-.6-1-.81-.31-1.38-3.45-5.01-4.36-4.97.73,1.07,1.54,2.03,2.15,3.17.4.75.82,1.63,1.7,2.05.09.44.49.7.68,1.11.17.37.6,1.05,1.24.36.44-.33.88-.67,1.41-1.08.39,2.34-.46,4.1-1.73,5.8-1.14,1.54-2.39,3.1-1.62,5.31.28.8,0,1.67-.45,2.42-.27.46-.84.51-1.22.89-1.06,1.03-1.16,2.56-2.21,3.64-1.56,1.62-3.11,2.98-5.45,3.17-.33.03-.62.06-.65-.25-.11-1.02-.91-1.77-1.04-2.77.04-.28.04-.54-.1-.82-.7-1.51-.94-3,.16-4.45.15-.19.1-.39.07-.65-.15-1.16-.73-2.07-1.48-2.9-.43-.48-.7-.84-.43-1.58.44-1.21.11-1.61-1.24-1.8-.28-.04-.5-.11-.72-.35-.37-.41-.84-.54-1.41-.27-1.34.65-2.84.3-4.25.59-.4.08-.73-.15-1.1-.34-1.27-.65-1.65-2-2.54-2.93-.74-.77-.77-1.5-.37-2.37.92-.95.19-2.14.47-3.18.29-.58.67-1.08,1.1-1.58.63-.74,1.86-.88,2.04-1.98.11-.68.39-1.1,1.04-1.36.35-.14.68-.73.12-.85-.85-.18-1.11-.84-.79-1.23.49-.6.02-1.11.21-1.62.09-.22.32-.21.52-.21.37,0,.73.02,1.1.02,1.2,0,1.31-.21.77-1.44-.31-.66.29-.77.65-.94.29-.13.6-.16.61-.56.75.07.56-1.22,1.42-.99.46-.07.84-.61,1.4-.1.21.2.48-.1.61-.37.14,0,.28,0,.42,0,.4-.09,1.04.28,1.02-.56.08-.22.18-.44.23-.66.16-.69-.7-.66-.86-1.14-.02-.05-.34-.09-.43-.02-.4.34.24.62.08.96-.54.14-.38.61-.46.97h-.02c-.26-.01-.61.11-.73-.23-.33-.99-1.01-.8-1.72-.54-.1-.23-.2-.45-.3-.68.09-.42.21-.77.63-1.07.37-.26.77-.69.65-1.28.49-.38.98-.75,1.47-1.13.96.19,1.91.37,2.87.56,0,.12.03.29-.03.35-.24.21-.63.44-.23.74.4.3.74-.04.75-.43.02-.51.58-.67.59-1.13.29-.18.18-.46.17-.71.13-.95-.18-1.59-1.21-1.74-.16-.24-.33-.48-.49-.71Zm3.05,12.89c.12.82-1.11.24-1.03,1.01,0,.16-.06.33-.02.48.1.32.48.69.05.95-.46.27-.57-.26-.78-.52-.72-.91-1.34-1.93-2.5-2.37-.19-.07-.38-.4-.61-.09-.07.1-.05.39.02.43.32.16.66.4.4.71-.26.31-.72.32-1.04-.08-.31-.6-.53-1.46-1.4-.49-.44.16-.97-.17-1.36.3-.88,1.03-1.05,2.72-2.83,2.97,1.65.15,3.13-.52,4.68-.7,1.05-.12,1.07.28,1.18.9.08.43-.06.96.65.88,1.09-.12,1.91.57,2.81.96.4-.21-.07-.86.51-.97.39,0,.77,0,1.16.01.77.4,1.52.19,2.31.05,1.22-.21,1.62-.68,1.33-1.86-.13-.51-.36-.74-.93-.41-1.05.6-2.5-.03-2.78-1.16.47-.38,1.2-.37,1.48-1.03.52-.39,1.04-.18,1.57,0,.42.14.66-.11.82-.48.22-.52-.24-.34-.44-.45-.31-.17-.53-.51-.94-.5-.14-.31.14-.91-.49-.89-.65.03-.41.51-.34.88-.21.02-.37.34-.62.13-1.05-.86-.94,0-.95.65,0,.23.05.47.08.7Zm5.14-3.22c-.84,1.24-.1,1.94.81,2.56.17.12.39.14.57.02.18-.12.1-.29,0-.42-.5-.73-.69-1.68-1.39-2.16Zm.58,21.99c-1.02-.06-1.1.08-.63,1.14.21-.37.41-.75.63-1.14Z"/>
      <path class="cls-1" d="m8.82,43.4c0,.41-.02.81-.03,1.22-.58.57-.13,1.28-.25,1.91-1.45-1.19-2.69-2.58-3.64-4.2-.23-.4-.51-.77-.77-1.15-.51-2.09-1.52-3.96-2.48-5.86-.38-1.4-.75-2.8-1.13-4.2-.13-.29-.27-.58-.4-.87-.25-2.01.88-3.9.52-5.92.58.07.57-.36.62-.74.29-.13.46.15.68.22.17.45.37,1.01.8,1.12.72.18.75.64,1,1.2.29.62.07,1.69,1.13,1.87.16.16.33.31.49.47h0c.26.48.53.97.79,1.45,0,.28-.09.6.01.83.62,1.34,1.85,1.98,3.09,2.61,1.13.8,2.49,1.43,2.25,3.19-1.06,1.01-1.09,2.3-1,3.63.02.28-.01.57-.02.85,0,.32-.18.63-.47.61-1.44-.1-1.29.84-1.21,1.75Z"/>
      <path class="cls-1" d="m3.33,14.24c-.11-1.07.64-1.79,1.14-2.57,1.35-2.08,3.05-3.93,4.92-5.49,2.22-1.86,4.77-3.36,7.56-4.32,1.1-.37,2.14-.96,3.33-1,.73.73,1.59.56,2.45.35.89.3,1.79.6,2.68.9-.09.22-.17.45-.26.67-.57.26-.81.85-1.25,1.24-.5.38-.94.79-1.64.91-1.43.25-2.85.58-3.98,1.61-.29.27-.68.29-1.04.15-.53-.22-.05-.63-.15-.93.98-1.3,2.47-1.98,3.65-3.03,1.23-.81.2-.8-.35-1.06-.33-.16-.55-.69-.98-.4-.32.21-.16.66-.12,1.01-.82,1.2-2.1,1.85-3.21,2.7-.18.08-.37.26-.53.23-1.02-.15-1.35.28-1.56,1.27-.19.88-.14,1.98-1.1,2.59-.23.14-.24.4-.21.65.09.88-.43,1.01-1.13.92-.32-.56-.02-.97.45-1.34-1.08-.3-1.85-.28-1.72,1.06-.07.25-.27.52-.47.5-1.76-.23-2.82.9-3.94,1.95-.02.09-.04.18-.07.27-.16.06-.41-.07-.43.24-.35.43-.99.49-1.26,1.02-.18.1-.37.19-.55.29-.08-.13-.17-.25-.25-.38ZM12.64,5.48c.77-.13,1.26-.66,1.9-.9.26-.1.43-.23.32-.53-.11-.3-.39-.27-.62-.22-.73.13-1.23.72-1.89,1-.08.04-.13.29-.11.43.04.27.28.23.4.23Zm-4.86,4.82c.25-.68.45-1.1.53-1.55.02-.1-.39-.12-.51.02-.35.39-.26.83-.02,1.53Z"/>
      <path class="cls-2" d="m2.14,19.25c-.06-.75-.51-.37-.85-.3.15-.63.3-1.25.44-1.88.6.14,1.2.3.99-.71-.07-.33.17-.39.44-.36.01.15.03.29.04.44-.19.74-.38,1.48-.58,2.21-.38.29,0,.8-.4,1.21-.04-.27-.07-.44-.1-.62Z"/>
      <path class="cls-2" d="m1.65,35.32c-.07.12-.15.25-.22.37-.62-1.31-.85-2.73-1.18-4.12-.05-.22.01-.39.26-.45.38,1.4.75,2.8,1.13,4.2Z"/>
      <path class="cls-2" d="m.63,24.32c-.3.05-.43-.18-.59-.35-.12-.64.02-1.21.45-1.7.41.35.05,1.15.77,1.31-.05.38-.04.81-.62.74Z"/>
      <path class="cls-2" d="m8.54,46.53c.12-.63-.33-1.34.25-1.91.23.91.47,1.82.7,2.74-.52-.05-.67-.51-.95-.83Z"/>
      <path class="cls-2" d="m22.12.41c0,.42.17.72.62.8-.86.21-1.72.38-2.45-.35.57-.34,1.28-.05,1.83-.45Z"/>
      <path class="cls-2" d="m41.16,10.82c.7.48.89,1.43,1.39,2.16.09.13.17.3,0,.42-.18.12-.39.1-.57-.02-.92-.62-1.66-1.32-.81-2.56Z"/>
      <path class="cls-2" d="m28.55,10.1c.07-.62.12-1.25-.45-1.7.71-.26,1.38-.45,1.72.54.11.34.47.21.73.24,0,.15,0,.3.01.45-.13.26-.4.56-.61.37-.55-.51-.94.03-1.4.1Z"/>
      <path class="cls-2" d="m34.67,3.6c-1.1.42-1.92.16-2.4-.97.05-.1.08-.26.16-.29.37-.14.44.26.65.38.27.15.42.81.83.38.26-.28.09-.68-.28-.92-.09-.05-.11-.21-.16-.32,1.03.14,1.34.78,1.21,1.74Z"/>
      <path class="cls-2" d="m30.51,14.55c-.65.03-.42.42-.29.74.08.2.38.37.11.6-.1.09-.31.1-.45.09-.4-.05-.28-.4-.34-.65-.12-.43.4-1.08-.42-1.27.86-.96,1.09-.11,1.4.49Z"/>
      <path class="cls-2" d="m43.73,25.29c.21,0,.41-.02.51-.25.38.21.4.87,1,.81.05.34-.25.85.42.91-.64.7-1.08.01-1.25-.36-.19-.41-.59-.67-.68-1.11Z"/>
      <path class="cls-2" d="m25.87,12.59c-.88.05-.7-.55-.65-1.07.58-.4,1.25-.45,1.92-.41,0,0,0-.02,0-.02-.01.4-.32.43-.61.56-.36.16-.95.27-.65.94Z"/>
      <path class="cls-2" d="m19.29,26.02c0-.73-.02-1.46-.01-2.19,0-.39-.06-.85.48-.99-.28,1.04.45,2.23-.47,3.18Z"/>
      <path class="cls-2" d="m36.02,14.04c.44-.01.87-.03,1.31-.04-.27.66-1.01.65-1.48,1.03-.29,0-.58.01-.87.02-.08-.77,1.16-.2,1.03-1.01Z"/>
      <path class="cls-2" d="m33.42,4.79c.14-.66.67-.44,1.08-.48,0,.47-.57.62-.59,1.13-.01.39-.36.73-.75.43-.4-.3,0-.52.23-.74.06-.06.02-.23.03-.35Z"/>
      <path class="cls-2" d="m34.76,18.4c.09-.13.18-.37.27-.37.68.02.22-1.23.91-.91.39.18-.31.84-.02,1.3-.39,0-.77-.01-1.16-.01Z"/>
      <path class="cls-2" d="m38.34,12.57c-.28,0-.55,0-.83,0-.07-.37-.31-.85.34-.88.63-.03.35.57.49.89Z"/>
      <path class="cls-2" d="m31.02,8.2c.15.09.62.15.21.36-.32.16-.4.46-.67.61.08-.36-.08-.83.46-.97Z"/>
      <path class="cls-2" d="m30.98,9.63c.09-.66.69-.36,1.02-.56.02.84-.63.47-1.02.56Z"/>
      <path class="cls-2" d="m20.75,2.73c-.27-.82-.97-.28-1.44-.46-.04-.35-.2-.79.12-1.01.43-.29.65.24.98.4.55.27,1.57.26.35,1.06Z"/>
      <path class="cls-2" d="m7.77,10.31c-.23-.7-.32-1.13.02-1.53.12-.14.53-.12.51-.02-.09.45-.29.87-.53,1.55Z"/>
      <path class="cls-2" d="m4.13,14.33c-.16.66-.35,1.29-.97,1.69-.16-.56.13-.98.42-1.4.18-.1.37-.19.55-.29Z"/>
      <path class="cls-1" d="m27.14,11.11c-.68-.03-1.34.01-1.92.41.13-.74-.25-1.05-1.13-.99.55-.66,1.36-.97,1.09-1.84.16-.1.33-.21.49-.31.49.91,1.43,1.58,1.47,2.73Z"/>
      <path class="cls-1" d="m43.56,41.42c.78-.74.44-2.37,1.72-3.18.2-.13.39-.29.55-.47.21-.23,0-.9.58-.68.5.18.23.62.12,1.01-.42,1.45-1.27,2.66-2.04,3.93-.19.32-.44.55-.68.5-.35-.08-.36-.49-.26-1.11Z"/>
      <path class="cls-2" d="m32.53,16.05c-.16,2.12-1-.22-1.42.22.36-.38.84-.28,1.29-.33.05.03.09.07.13.11Z"/>
      <path class="cls-2" d="m32.4,15.94c.2-.28-.35-.7.15-.92.14-.06.34,0,.38.18.1.39.23.81-.41.85-.04-.04-.08-.08-.13-.11Z"/>
      <path class="cls-2" d="m3.59,21.09c-.02.21.1.63-.16.58-.41-.08-.86-.32-1.15-.63-.21-.23.09-.49.38-.58.31.21.62.42.92.63Z"/>
    </g>
  </g>
</svg>